<svg width="20" height="26" viewBox="0 0 20 26" fill="none" xmlns="http://www.w3.org/2000/svg">
<path d="M16.44 7.40002C16.16 7.27752 15.8625 7.17252 15.5475 7.06752L18.89 1.29252L17 0.20752L13.325 6.54252C12.2257 6.36404 11.1137 6.27624 10 6.28002C8.93362 6.27988 7.86881 6.36179 6.815 6.52502L3.175 0.20752L1.25 1.29252L4.5925 7.03252C4.24027 7.13105 3.89528 7.25385 3.56 7.40002C0.795 8.52002 0.375 10.06 0.375 10.9V21.225C0.375 22.03 0.795 23.57 3.56 24.725C5.62007 25.4841 7.8052 25.8463 10 25.7925C12.197 25.8351 14.3822 25.461 16.44 24.69C19.205 23.5525 19.625 22.0125 19.625 21.19V10.8825C19.625 10.06 19.205 8.52002 16.44 7.40002ZM4.3825 9.50002C4.81682 9.32809 5.26093 9.18201 5.7125 9.06252L7.095 11.46L8.985 10.3575L8.005 8.60752C8.667 8.52501 9.33297 8.47828 10 8.46752C10.7192 8.47042 11.4377 8.51131 12.1525 8.59002L11.1725 10.34L13.0625 11.4425L14.4275 9.09752C16.3525 9.62252 17.4375 10.4275 17.4375 10.9525C17.4375 11.4775 16.8775 11.8975 15.6875 12.405C13.8643 13.0547 11.9342 13.3517 10 13.28C5.38 13.28 2.5625 11.7225 2.5625 10.8825C2.5625 10.515 3.1225 9.93752 4.3825 9.50002ZM15.6175 22.7475C13.8152 23.3825 11.9097 23.6734 10 23.605C5.38 23.605 2.5625 22.0475 2.5625 21.2075V19.055C2.88674 19.2294 3.21967 19.3871 3.56 19.5275C5.61776 20.2985 7.80297 20.6726 10 20.63C12.197 20.6726 14.3822 20.2985 16.44 19.5275C16.7803 19.3871 17.1133 19.2294 17.4375 19.055V21.2075C17.4375 21.5575 16.8775 22.1525 15.6175 22.66V22.7475ZM15.6175 17.585C13.8152 18.2201 11.9097 18.5109 10 18.4425C5.38 18.4425 2.5625 16.885 2.5625 16.045V13.8925C2.88674 14.0669 3.21967 14.2246 3.56 14.365C5.61776 15.136 7.80297 15.5101 10 15.4675C12.197 15.5101 14.3822 15.136 16.44 14.365C16.7803 14.2246 17.1133 14.0669 17.4375 13.8925V16.045C17.4375 16.395 16.8775 16.99 15.6175 17.4975V17.585Z" fill="white"/>
</svg>
