<svg width="18" height="13" viewBox="0 0 18 13" fill="none" xmlns="http://www.w3.org/2000/svg">
<path d="M11.2749 3.49481H1.69275C1.29094 3.49481 0.96521 3.16881 0.96521 2.76668C0.96521 2.36455 1.29094 2.03856 1.69275 2.03856H11.2749C11.5746 1.19015 12.383 0.582306 13.3334 0.582306C14.2837 0.582306 15.0922 1.19015 15.3918 2.03856H17.2136C17.6154 2.03856 17.9411 2.36455 17.9411 2.76668C17.9411 3.16881 17.6154 3.49481 17.2136 3.49481H15.3918C15.0922 4.34321 14.2837 4.95106 13.3334 4.95106C12.383 4.95106 11.5746 4.34321 11.2749 3.49481Z" fill="#D8D8D8"/>
<path d="M17.2136 11.2615C17.6154 11.2615 17.9411 10.9355 17.9411 10.5333C17.9411 10.1312 17.6154 9.80522 17.2136 9.80522H7.63141C7.33175 8.95681 6.52328 8.34897 5.57296 8.34897C4.62264 8.34897 3.81417 8.95681 3.51454 9.80522H1.69275C1.29094 9.80522 0.96521 10.1312 0.96521 10.5333C0.96521 10.9355 1.29094 11.2615 1.69275 11.2615H3.51454C3.81417 12.1099 4.62264 12.7177 5.57296 12.7177C6.52328 12.7177 7.33175 12.1099 7.63141 11.2615H17.2136Z" fill="#D8D8D8"/>
</svg>
