<svg width="19" height="13" viewBox="0 0 19 13" fill="none" xmlns="http://www.w3.org/2000/svg">
<path d="M9.2155 4.12604C8.01011 4.12604 7.03288 5.10406 7.03288 6.31042C7.03288 7.51677 8.01011 8.49479 9.2155 8.49479C10.4209 8.49479 11.3981 7.51677 11.3981 6.31042C11.3981 5.10406 10.4209 4.12604 9.2155 4.12604Z" fill="black"/>
<path fill-rule="evenodd" clip-rule="evenodd" d="M9.21549 0C6.67612 0 4.39241 1.02072 2.74682 2.28471C1.92295 2.91754 1.24694 3.62036 0.772637 4.30436C0.307371 4.97533 0 5.68083 0 6.31042C0 6.94 0.307371 7.64551 0.772637 8.31645C1.24694 9.0005 1.92295 9.70328 2.74682 10.3361C4.39241 11.6001 6.67612 12.6208 9.21549 12.6208C11.7549 12.6208 14.0386 11.6001 15.6842 10.3361C16.5081 9.70328 17.1841 9.0005 17.6583 8.31645C18.1236 7.64551 18.431 6.94 18.431 6.31042C18.431 5.68083 18.1236 4.97533 17.6583 4.30436C17.1841 3.62036 16.5081 2.91754 15.6842 2.28471C14.0386 1.02072 11.7549 0 9.21549 0ZM5.5778 6.31042C5.5778 4.29975 7.20645 2.66979 9.2155 2.66979C11.2246 2.66979 12.8532 4.29975 12.8532 6.31042C12.8532 8.32111 11.2246 9.95104 9.2155 9.95104C7.20645 9.95104 5.5778 8.32111 5.5778 6.31042Z" fill="black"/>
</svg>
