<svg width="24" height="24" viewBox="0 0 24 24" fill="none" xmlns="http://www.w3.org/2000/svg">
<path d="M0 11.65C0 5.22106 5.21169 0 11.6406 0C18.0696 0 23.2812 5.22106 23.2812 11.65C23.2812 18.0789 18.0696 23.3 11.6406 23.3C5.21169 23.3 0 18.0789 0 11.65Z" fill="#0077FF" fill-opacity="0.2"/>
<path fill-rule="evenodd" clip-rule="evenodd" d="M13.1615 23.2014C12.6637 23.2664 12.1561 23.3 11.6406 23.3C11.1252 23.3 10.6175 23.2664 10.1198 23.2014L10.379 21.2182C10.791 21.2721 11.2121 21.3 11.6406 21.3C12.0692 21.3 12.4902 21.2721 12.9023 21.2182L13.1615 23.2014ZM7.18363 22.4148L7.95091 20.5679C7.16836 20.2428 6.43689 19.8169 5.77283 19.3058L4.55305 20.8908C5.354 21.5072 6.23732 22.0217 7.18363 22.4148ZM2.40462 18.7397L3.99108 17.5218C3.48081 16.8571 3.05557 16.125 2.73098 15.3418L0.883371 16.1075C1.27573 17.0542 1.78926 17.9381 2.40462 18.7397ZM0.0984343 13.1709L2.08163 12.9122C2.02785 12.4999 2 12.0787 2 11.65C2 11.2213 2.02785 10.8001 2.08163 10.3878L0.0984344 10.1291C0.0334975 10.6269 0 11.1346 0 11.65C0 12.1654 0.0334975 12.6731 0.0984343 13.1709ZM0.883371 7.19251L2.73098 7.95825C3.05557 7.17504 3.48081 6.44288 3.99108 5.77815L2.40462 4.56031C1.78926 5.36193 1.27573 6.24581 0.883371 7.19251ZM4.55305 2.40919L5.77283 3.99416C6.43689 3.48312 7.16836 3.05723 7.95091 2.73214L7.18363 0.885174C6.23732 1.2783 5.354 1.79279 4.55305 2.40919ZM10.1198 0.0986261C10.6175 0.0335649 11.1252 0 11.6406 0C12.1561 0 12.6637 0.033565 13.1615 0.0986263L12.9023 2.08176C12.4902 2.0279 12.0692 2 11.6406 2C11.2121 2 10.791 2.0279 10.379 2.08176L10.1198 0.0986261ZM16.0976 0.885175L15.3303 2.73214C16.1129 3.05723 16.8444 3.48312 17.5084 3.99416L18.7282 2.40919C17.9272 1.79279 17.0439 1.2783 16.0976 0.885175ZM20.8766 4.56031L19.2902 5.77815C19.8004 6.44288 20.2257 7.17504 20.5503 7.95825L22.3979 7.19251C22.0055 6.24581 21.492 5.36193 20.8766 4.56031ZM23.1828 10.1291L21.1996 10.3878C21.2534 10.8001 21.2812 11.2213 21.2812 11.65C21.2812 12.0787 21.2534 12.4999 21.1996 12.9122L23.1828 13.1709C23.2478 12.6731 23.2812 12.1654 23.2812 11.65C23.2812 11.1346 23.2478 10.6269 23.1828 10.1291ZM22.3979 16.1075L20.5503 15.3418C20.2257 16.125 19.8004 16.8571 19.2902 17.5218L20.8766 18.7397C21.492 17.9381 22.0055 17.0542 22.3979 16.1075ZM18.7282 20.8908L17.5084 19.3058C16.8444 19.8169 16.1129 20.2428 15.3303 20.5679L16.0976 22.4148C17.0439 22.0217 17.9272 21.5072 18.7282 20.8908Z" fill="#0077FF"/>
<path d="M12.3682 6.79583C12.3682 6.3937 12.0424 6.06771 11.6406 6.06771C11.2388 6.06771 10.9131 6.3937 10.9131 6.79583V10.9219H6.79037C6.38857 10.9219 6.06284 11.2479 6.06284 11.65C6.06284 12.0521 6.38857 12.3781 6.79037 12.3781H10.9131V16.5042C10.9131 16.9063 11.2388 17.2323 11.6406 17.2323C12.0424 17.2323 12.3682 16.9063 12.3682 16.5042V12.3781H16.4909C16.8927 12.3781 17.2184 12.0521 17.2184 11.65C17.2184 11.2479 16.8927 10.9219 16.4909 10.9219H12.3682V6.79583Z" fill="#0077FF"/>
</svg>
