<svg xmlns="http://www.w3.org/2000/svg" viewBox="0 0 1952.82 1986"><defs><style>.cls-1{opacity:0.1;}.cls-2{fill:none;stroke:#fff;}</style></defs><g id="Layer_2" data-name="Layer 2"><g id="Layer_1-2" data-name="Layer 1"><g class="cls-1"><path class="cls-2" d="M768.57,118C716.85-16.59,461-83,503.19,184.91c6.92,43.93,7.62,119.58,0,211.66-7,84.36-143.64,130.51-185.58,239.51C251.82,807,497.79,926.15,458.65,1016c-51.27,117.69-208.25,168.75-295.08,233.14C81.83,1309.77,29.77,1407,9.77,1507c-35.07,175.42,28.58,359.26,203.91,368.41,87.77,4.58,203.53-34.62,348.89-140.57,65-47.36,122.31-86.4,173.25-118,131.1-81.24,95.85,110.93,251.74,118,88.82,4,181.6-161.89,251.83-73.39,49.93,62.92,107.24,139.27,189.08,217.76,143.72,137.85,323.4,158.15,348.82-38.59,12-92.87-10.38-234.1-87.15-434.17-49.13-128,73.07-123.51,87.15-287.57s-101.06-239.73-17.71-307.63l1.67-1.36C1824.78,758.16,1892.54,703,1929.54,597c31.87-91.32,28.83-181.77,0-251.26-30.86-74.38-91.24-124.77-170-126.56-79-1.79-176.42,45.34-281,166.26-69,79.72-115.65-105.78-239.18-86.82s-140.71,198-214.71,146C896.12,354.44,829.15,275.6,768.57,118Z"/><path class="cls-2" d="M1018.1,852.05c-7.87-20.65-44.56-15.23-46.41,7.16-2.12,25.49,10.77,58.71,9.28,84.26-2.88,49.34-20.31,63.39-55,89.39-12.44,9.31-20.37,24.24-23.41,39.59-5.34,26.93,4.35,55.15,31,56.56,13.36.7,31-5.32,53.1-21.58,9.89-7.28,18.61-13.27,26.36-18.11,33.75-22.79,65.15-4.94,76.64,6.84,7.6,9.66,16.32,21.38,28.77,33.43,21.88,21.16,55,18.39,53.09-5.93-2.69-34.34-61.34-162.56,0-184.92,28.49-10.38,27.56-33.91,23.17-44.57-4.7-11.42-13.88-19.16-25.86-19.43s-31.94,19.43-42.77,25.52C1086.09,922.76,1050.41,934.39,1018.1,852.05Z"/><path class="cls-2" d="M546,243.53C508.5-.4,742.33,60.41,789.75,183.78,847.81,334.6,912,405.29,1032.6,485.31c67.83,46.95,84.15-116.47,197.26-134.24s156.33,150.58,219.62,78.05c96.25-110,185.74-152.17,258-149.51,71.83,2.11,126.89,48.72,154.71,117.16,26,64,28.12,147.05-2.17,230.61-39.55,99.31-96.65,161.13-154.64,211.67-75.75,62.88,28.3,132.32,14.51,281.69s-126.23,144.84-82.53,260.37c68.72,180.93,88.29,308.37,76.68,392-23.64,178.46-188.11,159.33-320.11,33.63-75.69-71.69-129.31-141-176.28-197.27-64.61-80.07-149.81,71.41-231.53,68.42-142.85-5.68-111.68-180-231.77-105.79-47.15,29-100,64.67-159.74,107.73-134.7,96.27-240.9,129.39-320.28,122.79-159.39-9-217-177-184.78-337.18,18.54-91.59,66.38-180.62,141.32-236.19,82.16-60.93,226.58-108.65,273.49-220.18C540.07,926.16,316,816.44,375.61,659.59c37.92-100.49,162-143.81,168.46-221.7C551.09,353.1,551.33,283.64,546,243.53Z"/><path class="cls-2" d="M590.68,304.62C558,85.52,769.45,140.47,812.5,252.23,868,395.77,929.25,458.06,1041.73,527.66c61.55,41.84,77-105.49,179.53-122s142.2,134.11,199.73,69c87.77-98.7,169.19-135.8,234.68-132.28,64.83,2.42,114.49,45.11,139.23,107.38,23.09,58.29,24.33,133.68-4.34,209.19-41.71,91.36-87.2,159.54-139.1,208.3-68,57.64,24.77,120.65,11.29,254.83s-116,129.66-77.78,232.31c60.57,161.22,77.3,274.45,66.1,348.55-21.84,159.61-170.86,141.7-290.93,28.57-69.44-64.66-119.3-126.79-163.23-176.12-58.89-71.4-136.4,65.16-210.9,63.2-129.59-4.29-102.55-160.23-211.45-93.26-43.3,26.4-91.61,58.52-146,97.14-123.82,86.27-220.32,113.2-291.18,104.61-143.22-8.85-194.81-160.34-165.39-304.83,17.07-82.89,60.61-163.4,128.64-213.74,77.37-57.27,209-101.49,251.49-206.49,32.17-75.68-169.65-175.62-116.31-317.86C469.61,592.55,581,552.21,586.87,481,593.27,403.82,594.46,340.78,590.68,304.62Z"/><path class="cls-2" d="M633.45,363.25C605.53,168.17,794.92,217.47,833.66,318c52.93,136.74,111.44,190.88,216,250.31,55.37,36.89,70-94.88,162.07-110.18S1340,576.31,1391.85,518.43c79.43-87.77,152.9-119.92,211.7-115.53,57.92,2.73,102.26,41.65,124,98,20.23,52.79,20.57,120.79-6.53,188.53-43.93,83.73-77.89,158.49-123.77,205.65-60.43,52.62,21.28,109.41,8.09,228.89s-105.94,115-73.15,205.11c52.51,142.09,66.42,241.52,55.61,306.38-20.07,141.33-153.86,124.59-262.2,23.61-63.29-57.86-109.46-113-150.43-155.62-53.26-63-123.2,59.16-190.59,58.21-116.54-2.92-93.58-141-191.47-81.07-39.5,23.87-83.35,52.58-132.51,86.9-113.14,76.59-200.08,97.44-262.54,86.84-127.26-8.72-172.87-144.32-146.26-273.6,15.63-74.49,54.94-146.78,116.16-192.07,72.71-53.8,191.78-94.69,229.9-193.52,28.71-68.73-151.19-159.26-104-287.4,29.79-83.15,128.57-120.65,133.94-185.37C633.53,452.43,635.66,395.59,633.45,363.25Z"/><path class="cls-2" d="M678.13,421.87c-23.11-171,143.88-127.39,178.24-38,50.32,130,106,175.94,202.35,225.2,49.09,31.93,62.82-84.27,144.32-98.38s114.15,102.17,160.24,51.5c71-76.84,136.34-104,188.34-98.78,50.92,3.06,89.85,38.2,108.48,88.6,17.35,47.29,16.78,107.89-8.69,167.86-46.08,76.11-68.45,157.48-108.22,203-52.72,47.59,17.75,98.17,4.86,202.95s-95.69,100.25-68.39,177.89c44.36,123,55.43,208.58,45,264.19-18.27,123-136.59,107.47-233,18.65-57-51.06-99.43-99.19-137.36-135.12-47.54-54.56-109.79,53.16-169.94,53.23-103.28-1.55-84.45-121.81-171.14-68.88-35.65,21.33-75,46.65-118.77,76.66-102.27,66.9-179.5,81.67-233.44,69-111.09-8.58-150.62-128.28-126.86-242.36,14.15-66.07,49.16-130.14,103.47-170.38,67.91-50.35,174.2-87.9,207.89-180.57C670.72,926.39,513.07,845.28,554,731.23c25.7-74.64,111.73-109.3,116.56-167.57C675.7,501,678.76,450.39,678.13,421.87Z"/><path class="cls-2" d="M722.8,483.26c-18.31-146.64,126.27-108.74,156.26-30.79,47.7,122.9,100.43,160.6,188.68,199.59,42.81,26.9,55.66-73.48,126.58-86.36s100,86,140.33,42.62c62.46-65.73,119.76-87.92,165-81.81,43.92,3.38,77.45,34.67,93,79,14.45,41.68,13,94.75-10.87,146.83-48.21,68.3-59,156.09-92.66,199.95-45,42.46,14.22,86.71,1.65,176.55s-85.45,85.32-63.63,150.28c36.2,103.54,44.44,175.18,34.45,221.41-16.47,104.5-119.31,90.11-203.8,13.65-50.76-44.14-89.4-85.17-124.29-114.31-41.81-46-96.36,47-149.28,48.13-90-.18-75.32-102.33-150.81-56.53-31.79,18.74-66.55,40.6-105,66.24-91.37,57.07-158.89,65.71-204.32,51.1-94.91-8.44-128.36-112-107.46-210.58,12.68-57.52,43.38-113.22,90.77-148.33C570.45,1103.14,664,1069,693.21,982.7,714.89,928,579.49,856.51,614.1,756.81c21.61-66,94.9-97.72,99.18-149.4C717.86,552.22,721.86,507.89,722.8,483.26Z"/><path class="cls-2" d="M765.53,541.88c-13.54-122.6,108.93-90.34,134.6-23.61,45.19,116.14,95.12,145.67,175.42,174.48,36.62,21.94,48.62-62.87,109.09-74.55s86.06,70,120.71,33.84c54.11-54.79,103.45-72,141.94-65,37,3.7,65.19,31.22,77.71,69.61,11.6,36.19,9.22,81.86-13,126.16-50.45,60.68-49.66,155.11-77.31,197.38-37.39,37.42,10.73,75.46-1.56,150.59s-75.37,70.6-59,123c28.12,84.39,33.54,142.22,23.94,179.19-14.69,86.21-102.28,73-175,8.68-44.6-37.33-79.55-71.36-111.47-93.79-36.18-37.59-83.14,41-128.94,43.14-76.94,1.2-66.33-83.1-130.79-44.32-28,16.21-58.29,34.66-91.49,56-80.69,47.38-138.63,49.93-175.64,33.29-78.92-8.31-106.38-95.93-88.29-179.32,11.23-49.12,37.69-96.59,78.27-126.65,58.43-43.31,139.35-74.11,164.24-154.26,18.21-47.74-95.23-109.82-66.82-195.43,17.57-57.46,78.26-86.37,82-131.59C758.07,600.83,763,562.69,765.53,541.88Z"/><path class="cls-2" d="M810.14,600.5c-8.74-98.53,91.3-71.94,112.6-16.42,42.54,109.4,89.55,130.75,161.67,149.36,30.33,17,41.45-52.26,91.32-62.73s71.9,54,100.77,25c45.61-43.85,86.85-56.12,118.53-48.25,30,4,52.78,27.76,62.22,60.22,8.71,30.68,5.44,69-15.2,105.48-52.54,53.06-40.2,154.17-61.75,194.85-29.67,32.4,7.2,64.22-4.76,124.64s-65.1,55.86-54.2,95.78c20,65.22,22.56,109.22,13.37,136.93-12.88,67.9-85,55.83-145.78,3.7-38.32-30.53-69.49-57.54-98.35-73.25-30.45-29.15-69.69,35-108.25,38.16-63.67,2.58-57.18-63.86-110.42-32.11-24.13,13.67-49.87,28.72-77.73,45.75-69.77,37.68-118,34.11-146.48,15.43-62.73-8.18-84.11-79.88-68.88-148,9.75-40.71,31.9-79.94,65.55-104.94,53.61-39.87,121.72-67.34,142.17-141.35,14.69-40.78-76.48-93.44-54.34-164.94,13.48-49,61.41-75,64.62-113.8C800.18,649.42,806.05,617.49,810.14,600.5Z"/><path class="cls-2" d="M853.5,659.12c-4-74.45,74.18-53.51,91.2-9.22,40.15,102.7,84.51,115.85,148.87,124.24,24.21,12,34.51-41.64,74-50.91s58.13,37.95,81.39,16.24c37.36-32.88,70.73-40.18,95.77-31.43,23.15,4.35,40.64,24.32,47.06,50.83,5.86,25.17,1.67,56-17.45,84.79-55,45.43-31,153.31-46.51,192.43-22.12,27.37,3.7,53-8,98.64s-55.19,41.11-49.73,68.48c11.93,46,11.69,76.17,2.86,94.59-11.14,49.56-68.14,38.65-117.33-1.3-32.25-23.7-59.82-43.7-85.79-52.67-24.88-20.7-56.63,29-88.16,33.18-50.73,4-48.33-44.58-90.66-19.86l-1.17.64c-20,10.93-41,22.37-63.21,34.84-59.26,28-98,18.27-118.13-2.47-46.87-8.05-62.29-63.83-49.84-116.75,8.33-32.29,26.29-63.28,53.2-83.23,49.09-36.43,104.76-60.56,120.89-128.45,11.26-33.83-58.14-77.06-42.15-134.45,9.45-40.44,44.89-63.69,47.57-96C841,698,847.81,672.27,853.5,659.12Z"/><path class="cls-2" d="M898,720.58c.82-50,56.48-34.84,69.11-2,37.45,95.53,78.83,100.43,134.94,98.57,17.89,7,27.3-30.83,56.19-38.87s43.9,21.76,61.36,7.37c28.83-21.78,54.07-24.07,72.28-14.47,16.12,4.65,28.19,20.76,31.53,41.2,3,19.56-2.11,42.89-19.57,63.72-57,37.61-21.48,151.76-30.91,189.13-14.39,22.23.17,41.49-11.21,72.22s-44.85,26.17-44.86,40.87c3.77,26.62.7,42.79-7.7,51.85-9.32,31-50.78,21.3-88-6.28-25.94-16.79-49.69-29.68-72.58-31.88-19.12-12.16-43.13,22.89-67.38,28.06-37.41,5.32-39.12-25.12-70.2-7.54-16.5,8.55-33.26,16.73-50.55,25.06-48.28,18.13-77.26,2.35-88.86-20.35-30.64-7.89-40-47.48-30.39-84.93,6.84-23.72,20.47-46.34,40.43-61.14,44.19-32.83,87-53.52,98.69-115,7.73-26.72-39.34-60.33-29.65-103.35,5.37-31.75,28-52.06,30.16-77.76S890.76,729.84,898,720.58Z"/><path class="cls-2" d="M943.16,779.27c5.59-25.78,38.93-16.3,47.2,5.25,34.82,88.57,73.29,85.25,121.25,73.16,11.63,2,20.17-20.12,38.49-26.94s29.81,5.67,41.53-1.46c20.37-10.74,37.55-8,49,2.41,9.14,5,15.83,17.26,16.11,31.69.1,14-5.88,29.87-21.7,42.85-59.06,29.88-12.07,150.51-15.43,186.22-6.7,17.14-3.33,30.12-14.39,46s-34.63,11.34-40.1,13.44c-4.33,7.32-10.21,9.59-18.2,9.33-7.52,12.58-33.56,4-58.87-11.26-19.68-9.92-39.67-15.75-59.51-11.2-13.41-3.68-29.75,16.81-46.79,23-24.2,6.69-30-5.76-49.94,4.74A328.74,328.74,0,0,1,895,1181.24c-37.42,8.36-56.72-13.52-59.84-38.22-14.54-7.75-17.83-31.29-11.09-53.38,5.37-15.24,14.72-29.55,27.78-39.25,39.38-29.3,69.45-46.61,76.72-101.8,4.23-19.69-20.69-43.77-17.23-72.55,1.29-23.15,11.25-40.58,12.85-59.74C925.68,797.83,934.36,784.68,943.16,779.27Z"/></g></g></g></svg>