<?xml version="1.0" encoding="iso-8859-1"?>
<!-- Uploaded to: SVG Repo, www.svgrepo.com, Generator: SVG Repo Mixer Tools -->
<svg fill="#000000" height="800px" width="800px" version="1.1" id="Layer_1" xmlns="http://www.w3.org/2000/svg" xmlns:xlink="http://www.w3.org/1999/xlink" 
	 viewBox="0 0 512 512" xml:space="preserve">
<g>
	<g>
		<polygon points="372.761,179.921 332.836,256.285 372.761,332.651 412.784,256.285 		"/>
	</g>
</g>
<g>
	<g>
		<polygon points="138.703,179.921 98.777,256.285 138.703,332.651 178.726,256.285 		"/>
	</g>
</g>
<g>
	<g>
		<polygon points="255.839,180.217 215.971,256.285 255.839,332.354 295.61,256.285 		"/>
	</g>
</g>
<g>
	<g>
		<polygon points="450.028,256.285 478.993,311.55 478.993,201.022 		"/>
	</g>
</g>
<g>
	<g>
		<polygon points="32.97,201.618 32.97,310.952 61.551,256.285 		"/>
	</g>
</g>
<g>
	<g>
		<path d="M479.01,68.972H32.989C14.77,68.973,0,83.743,0,101.962c0,11.736,6.135,22.033,15.366,27.881
			c7.015,4.443,13.186,5.107,19.688,5.107c1.322,1.737-2.119-4.6,45.111,85.735c47.231-90.334,44.073-84.433,44.977-85.735h27.089
			c0.899,1.294-2.275-4.628,45.118,85.802c47.245-90.145,44.169-84.421,45.126-85.802c19.966,0,24.112,0,24.824,0
			c0.105,0,0.136,0,0.132,0c0.2,0,0.668,0,1.681,0c1.401,1.84-1.926-4.23,45.109,85.735c47.229-90.334,44.073-84.433,44.976-85.735
			h27.089c0.899,1.294-2.275-4.628,45.118,85.802c47.386-90.416,44.174-84.428,45.126-85.802c3.621,0,11.779,0.408,20.647-5.458
			c8.928-5.904,14.82-16.027,14.82-27.531C511.999,83.742,497.229,68.972,479.01,68.972z"/>
	</g>
</g>
<g>
	<g>
		<path d="M497.684,382.847c-9.077-6.246-17.515-5.796-21.539-5.796c-0.62-0.978,2.424,4.755-44.737-85.232
			c-47.162,89.987-44.112,84.242-44.74,85.232h-27.845c-0.641-1.012,2.412,4.752-44.599-85.165
			c-46.963,89.825-43.74,83.796-44.692,85.165c-1.162,0-1.719,0-1.967,0c-0.133,0-0.179,0-0.178,0c-0.851,0-5.357,0-25.299,0
			c-0.621-0.98,2.421,4.751-44.739-85.232c-47.162,89.987-44.112,84.242-44.74,85.232h-27.845
			c-0.641-1.012,2.412,4.752-44.599-85.165c-47.35,90.566-43.723,83.773-44.692,85.165c-3.609,0-11.757-0.411-20.625,5.44
			C5.905,388.39,0,398.523,0,410.039c0,18.219,14.77,32.989,32.989,32.989h446.021c18.219,0,32.989-14.77,32.989-32.989
			C512,398.752,506.328,388.795,497.684,382.847z"/>
	</g>
</g>
</svg>