<svg width="23" height="23" viewBox="0 0 23 23" fill="none" xmlns="http://www.w3.org/2000/svg">
<path fill-rule="evenodd" clip-rule="evenodd" d="M7.33865 0.307617H15.6517C19.477 0.307617 22.5792 3.40976 22.5792 7.23514V15.5482C22.5792 19.3735 19.477 22.4757 15.6517 22.4757H7.33865C3.51327 22.4757 0.411133 19.3735 0.411133 15.5482V7.23514C0.411133 3.40976 3.51327 0.307617 7.33865 0.307617ZM15.6517 20.3974C18.3257 20.3974 20.5009 18.2222 20.5009 15.5482V7.23513C20.5009 4.56111 18.3257 2.38587 15.6517 2.38587H7.33865C4.66463 2.38587 2.48939 4.56111 2.48939 7.23513V15.5482C2.48939 18.2222 4.66463 20.3974 7.33865 20.3974H15.6517Z" fill="white"/>
<path fill-rule="evenodd" clip-rule="evenodd" d="M5.95315 11.3916C5.95315 8.33107 8.43458 5.84963 11.4952 5.84963C14.5557 5.84963 17.0372 8.33107 17.0372 11.3916C17.0372 14.4522 14.5557 16.9337 11.4952 16.9337C8.43458 16.9337 5.95315 14.4522 5.95315 11.3916ZM8.0314 11.3916C8.0314 13.3009 9.58594 14.8554 11.4952 14.8554C13.4044 14.8554 14.9589 13.3009 14.9589 11.3916C14.9589 9.48104 13.4044 7.92789 11.4952 7.92789C9.58594 7.92789 8.0314 9.48104 8.0314 11.3916Z" fill="white"/>
<path d="M18.1913 5.43398C18.1913 5.84183 17.8607 6.17245 17.4528 6.17245C17.045 6.17245 16.7144 5.84183 16.7144 5.43398C16.7144 5.02613 17.045 4.69551 17.4528 4.69551C17.8607 4.69551 18.1913 5.02613 18.1913 5.43398Z" fill="white"/>
</svg>
