<svg width="23" height="23" viewBox="0 0 23 23" fill="none" xmlns="http://www.w3.org/2000/svg">
<path fill-rule="evenodd" clip-rule="evenodd" d="M7.33853 0.307678H15.6515C19.4769 0.307678 22.5791 3.40982 22.5791 7.2352V15.5482C22.5791 19.3736 19.4769 22.4757 15.6515 22.4757H7.33853C3.51315 22.4757 0.411011 19.3736 0.411011 15.5482V7.2352C0.411011 3.40982 3.51315 0.307678 7.33853 0.307678ZM15.6515 20.3975C18.3256 20.3975 20.5008 18.2222 20.5008 15.5482V7.2352C20.5008 4.56117 18.3256 2.38593 15.6515 2.38593H7.33853C4.66451 2.38593 2.48927 4.56117 2.48927 7.2352V15.5482C2.48927 18.2222 4.66451 20.3975 7.33853 20.3975H15.6515Z" fill="#0D0D0D"/>
<path fill-rule="evenodd" clip-rule="evenodd" d="M5.95302 11.3917C5.95302 8.33113 8.43446 5.84969 11.495 5.84969C14.5556 5.84969 17.0371 8.33113 17.0371 11.3917C17.0371 14.4523 14.5556 16.9337 11.495 16.9337C8.43446 16.9337 5.95302 14.4523 5.95302 11.3917ZM8.03128 11.3917C8.03128 13.3009 9.58582 14.8555 11.495 14.8555C13.4043 14.8555 14.9588 13.3009 14.9588 11.3917C14.9588 9.4811 13.4043 7.92795 11.495 7.92795C9.58582 7.92795 8.03128 9.4811 8.03128 11.3917Z" fill="#0D0D0D"/>
<path d="M18.1912 5.43404C18.1912 5.84189 17.8606 6.17251 17.4527 6.17251C17.0449 6.17251 16.7142 5.84189 16.7142 5.43404C16.7142 5.02619 17.0449 4.69557 17.4527 4.69557C17.8606 4.69557 18.1912 5.02619 18.1912 5.43404Z" fill="#0D0D0D"/>
</svg>
