<svg width="24" height="19" viewBox="0 0 24 19" fill="none" xmlns="http://www.w3.org/2000/svg">
<path d="M23.1056 2.45529C22.2812 2.8169 21.4028 3.0566 20.487 3.17298C21.4291 2.61046 22.1482 1.72651 22.4862 0.661061C21.6078 1.18478 20.638 1.55471 19.6044 1.76115C18.7703 0.873043 17.5816 0.322998 16.2847 0.322998C13.7686 0.322998 11.743 2.36523 11.743 4.86883C11.743 5.22907 11.7735 5.57544 11.8483 5.90519C8.07007 5.72092 4.72685 3.91007 2.48095 1.15153C2.08885 1.83181 1.85886 2.61046 1.85886 3.44869C1.85886 5.02263 2.66938 6.41783 3.87754 7.22558C3.14738 7.21172 2.43107 6.99974 1.82422 6.66583C1.82422 6.67969 1.82422 6.6977 1.82422 6.71571C1.82422 8.9242 3.39954 10.7586 5.46533 11.1812C5.0954 11.2823 4.69221 11.3308 4.27379 11.3308C3.98284 11.3308 3.68911 11.3142 3.41339 11.2532C4.00223 13.053 5.67315 14.3762 7.65996 14.4191C6.11374 15.6287 4.15048 16.3574 2.02512 16.3574C1.65242 16.3574 1.29496 16.3408 0.9375 16.2951C2.95064 17.5933 5.33647 18.3345 7.90935 18.3345C16.2723 18.3345 20.8444 11.407 20.8444 5.40225C20.8444 5.20136 20.8375 5.00739 20.8278 4.8148C21.7297 4.1747 22.4876 3.37526 23.1056 2.45529Z" fill="white"/>
</svg>
