<svg width="24" height="19" viewBox="0 0 24 19" fill="none" xmlns="http://www.w3.org/2000/svg">
<path d="M23.1056 2.45521C22.2812 2.81683 21.4028 3.05652 20.487 3.1729C21.4291 2.61039 22.1482 1.72644 22.4862 0.660985C21.6078 1.1847 20.638 1.55463 19.6044 1.76107C18.7703 0.872967 17.5816 0.322922 16.2847 0.322922C13.7686 0.322922 11.743 2.36515 11.743 4.86876C11.743 5.22899 11.7735 5.57537 11.8483 5.90512C8.07007 5.72084 4.72685 3.90999 2.48095 1.15145C2.08885 1.83174 1.85886 2.61039 1.85886 3.44862C1.85886 5.02255 2.66938 6.41775 3.87754 7.2255C3.14738 7.21165 2.43107 6.99966 1.82422 6.66576C1.82422 6.67961 1.82422 6.69762 1.82422 6.71564C1.82422 8.92413 3.39954 10.7585 5.46533 11.1811C5.0954 11.2823 4.69221 11.3307 4.27379 11.3307C3.98284 11.3307 3.68911 11.3141 3.41339 11.2532C4.00223 13.0529 5.67315 14.3761 7.65996 14.419C6.11374 15.6286 4.15048 16.3574 2.02512 16.3574C1.65242 16.3574 1.29496 16.3407 0.9375 16.295C2.95064 17.5932 5.33647 18.3345 7.90935 18.3345C16.2723 18.3345 20.8444 11.4069 20.8444 5.40218C20.8444 5.20128 20.8375 5.00731 20.8278 4.81472C21.7297 4.17462 22.4876 3.37519 23.1056 2.45521Z" fill="#0D0D0D"/>
</svg>
