<svg width="16" height="20" viewBox="0 0 16 20" fill="none" xmlns="http://www.w3.org/2000/svg">
<path d="M15.34 12.49L14.34 10.83C14.13 10.46 13.94 9.76 13.94 9.35V6.82C13.94 3.56 11.29 0.9 8.02 0.9C4.75 0.9 2.1 3.56 2.1 6.82V9.35C2.1 9.76 1.91 10.46 1.7 10.82L0.690004 12.49C0.290004 13.16 0.200004 13.9 0.450004 14.58C0.690004 15.25 1.26 15.77 2 16.02C3.94 16.68 5.98 17 8.02 17C10.06 17 12.1 16.68 14.04 16.03C14.74 15.8 15.28 15.27 15.54 14.58C15.8 13.89 15.73 13.13 15.34 12.49Z" fill="#CBCBCB" fill-opacity="0.5"/>
<path d="M10.25 1.32C9.56001 1.05 8.81 0.9 8.02 0.9C7.24 0.9 6.49 1.04 5.8 1.32C6.23 0.51 7.08 0 8.02 0C8.97001 0 9.81001 0.51 10.25 1.32Z" fill="#CBCBCB"/>
<path d="M10.83 18.01C10.41 19.17 9.3 20 8 20C7.21 20 6.43 19.68 5.88 19.11C5.56 18.81 5.32 18.41 5.18 18C5.31 18.02 5.44 18.03 5.58 18.05C5.81 18.08 6.05 18.11 6.29 18.13C6.86 18.18 7.44 18.21 8.02 18.21C8.59 18.21 9.16 18.18 9.72 18.13C9.93 18.11 10.14 18.1 10.34 18.07C10.5 18.05 10.66 18.03 10.83 18.01Z" fill="#CBCBCB"/>
</svg>
