<svg width="16" height="16" viewBox="0 0 16 16" fill="none" xmlns="http://www.w3.org/2000/svg">
<path d="M15.7076 14.2968L12.6108 11.1987C14.928 8.10222 14.2962 3.71356 11.1997 1.39641C8.10314 -0.920736 3.71447 -0.288925 1.39733 2.80759C-0.91982 5.90411 -0.28801 10.2928 2.80851 12.6099C5.29588 14.4712 8.71224 14.4712 11.1997 12.6099L14.2977 15.708C14.6871 16.0973 15.3183 16.0973 15.7076 15.708C16.0969 15.3187 16.0969 14.6874 15.7076 14.2982L15.7076 14.2968ZM7.0299 12.012C4.27786 12.012 2.04692 9.78102 2.04692 7.02898C2.04692 4.27695 4.27786 2.046 7.0299 2.046C9.78193 2.046 12.0129 4.27695 12.0129 7.02898C12.0099 9.77977 9.78072 12.009 7.0299 12.012Z" fill="#737B8F"/>
</svg>
