<svg width="19" height="21" viewBox="0 0 19 21" fill="none" xmlns="http://www.w3.org/2000/svg">
<path d="M9.94197 1.4271C9.94197 1.02497 9.61623 0.698975 9.21443 0.698975C8.81263 0.698975 8.48689 1.02497 8.48689 1.4271V2.42625C3.78539 2.79373 0.0746283 6.69224 7.9815e-05 11.4743C-0.00494506 11.7969 0.227848 12.0702 0.540729 12.1225C3.17212 12.5614 5.82846 12.7992 8.48689 12.8358V18.4167C8.48689 18.8188 8.16115 19.1448 7.75935 19.1448C7.35756 19.1448 7.03181 18.8188 7.03181 18.4167V17.9313C7.03181 17.5291 6.70608 17.2031 6.30427 17.2031C5.90247 17.2031 5.57674 17.5291 5.57674 17.9313V18.4167C5.57674 19.623 6.55393 20.6011 7.75935 20.6011C8.96474 20.6011 9.94197 19.623 9.94197 18.4167V12.8358C12.6004 12.7992 15.2568 12.5614 17.8882 12.1225C18.201 12.0702 18.4338 11.7969 18.4288 11.4743C18.3543 6.69223 14.6435 2.79372 9.94197 2.42625V1.4271Z" fill="white"/>
</svg>
