<svg width="39" height="37" viewBox="0 0 39 37" fill="none" xmlns="http://www.w3.org/2000/svg">
<path d="M0.0625 18.5C0.0625 8.28273 8.34523 0 18.5625 0H19.5625C29.7798 0 38.0625 8.28273 38.0625 18.5C38.0625 28.7173 29.7798 37 19.5625 37H18.5625C8.34523 37 0.0625 28.7173 0.0625 18.5Z" fill="#102540"/>
<path fill-rule="evenodd" clip-rule="evenodd" d="M18.5625 2C9.4498 2 2.0625 9.3873 2.0625 18.5C2.0625 27.6127 9.4498 35 18.5625 35H19.5625C28.6752 35 36.0625 27.6127 36.0625 18.5C36.0625 9.3873 28.6752 2 19.5625 2H18.5625ZM18.5625 0C8.34523 0 0.0625 8.28273 0.0625 18.5C0.0625 28.7173 8.34523 37 18.5625 37H19.5625C29.7798 37 38.0625 28.7173 38.0625 18.5C38.0625 8.28273 29.7798 0 19.5625 0H18.5625Z" fill="#172E4D"/>
<path d="M20.3079 10.5139C15.7541 10.5139 12.0625 14.2085 12.0625 18.766C12.0625 23.3235 15.7541 27.0181 20.3079 27.0181C24.5932 27.0181 28.1145 23.7467 28.5154 19.5628C28.5341 19.3681 28.4341 19.1812 28.2619 19.0887C28.0896 18.9963 27.8787 19.0163 27.727 19.1396C26.893 19.8168 25.8311 20.2222 24.6732 20.2222C21.9945 20.2222 19.8229 18.0489 19.8229 15.3681C19.8229 13.7758 20.5885 12.3626 21.7733 11.4767C21.93 11.3595 22.001 11.1597 21.9534 10.9698C21.9059 10.78 21.7491 10.6373 21.5558 10.6079C21.1486 10.546 20.7319 10.5139 20.3079 10.5139Z" fill="#405D80"/>
</svg>
