<svg width="15" height="19" viewBox="0 0 15 19" fill="none"  xmlns="http://www.w3.org/2000/svg">
<path d="M9.11305 1.33545C8.16007 0.350424 6.5815 0.350424 5.62852 1.33544L0.973787 6.14664C0.706451 6.42295 0.526817 6.77226 0.457497 7.15056C-0.107811 10.2359 -0.149543 13.3944 0.334067 16.4936L0.505281 17.5908C0.559362 17.9374 0.857614 18.1929 1.2081 18.1929H4.46065C4.72852 18.1929 4.94568 17.9755 4.94568 17.7075V10.9117H9.79597V17.7075C9.79597 17.9755 10.0131 18.1929 10.281 18.1929H13.5335C13.884 18.1929 14.1822 17.9374 14.2363 17.5908L14.4075 16.4936C14.8911 13.3944 14.8494 10.2359 14.2841 7.15056C14.2147 6.77226 14.0351 6.42295 13.7677 6.14664L9.11305 1.33545Z" fill="white"/>
</svg>
