<svg width="19" height="17" viewBox="0 0 19 17" fill="none" xmlns="http://www.w3.org/2000/svg">
<path fill-rule="evenodd" clip-rule="evenodd" d="M4.65793 2.22192V3.60107L3.01473 3.73381C1.85291 3.82767 0.905202 4.70314 0.718865 5.85467C0.678375 6.10494 0.641542 6.35564 0.608386 6.6067C0.591934 6.73134 0.658314 6.85192 0.771811 6.9057L0.846553 6.94114C6.11268 9.43657 12.4186 9.43657 17.6848 6.94114L17.7595 6.9057C17.873 6.85192 17.9394 6.73134 17.9229 6.60671C17.8898 6.35565 17.853 6.10494 17.8125 5.85467C17.6262 4.70314 16.6784 3.82767 15.5166 3.73381L13.8734 3.60107V2.22192C13.8734 1.38093 13.2587 0.666506 12.4277 0.541754L11.2443 0.364101C9.93258 0.167187 8.59876 0.167187 7.28708 0.364101L6.10369 0.541754C5.27269 0.666506 4.65793 1.38093 4.65793 2.22192ZM11.0285 1.80424C9.85983 1.62881 8.67152 1.62881 7.5029 1.80424L6.31954 1.98189C6.20082 1.99971 6.113 2.10178 6.113 2.22192V3.49857C8.21307 3.37817 10.3183 3.37817 12.4183 3.49857V2.22192C12.4183 2.10178 12.3306 1.99971 12.2118 1.98189L11.0285 1.80424Z" fill="#D8D8D8"/>
<path d="M18.1109 8.63883C18.1036 8.50282 17.9614 8.41778 17.837 8.47292C12.4328 10.8677 6.09849 10.8677 0.69441 8.47292C0.569952 8.41778 0.427665 8.50282 0.420429 8.63883C0.321697 10.4945 0.421185 12.3581 0.718865 14.1978C0.905202 15.3493 1.85291 16.2248 3.01473 16.3187L4.83059 16.4654C7.78246 16.7038 10.7488 16.7038 13.7008 16.4654L15.5166 16.3187C16.6784 16.2248 17.6262 15.3493 17.8125 14.1978C18.1101 12.3581 18.2097 10.4945 18.1109 8.63883Z" fill="#D8D8D8"/>
</svg>
