<svg width="15" height="20" viewBox="0 0 9 7" fill="none" xmlns="http://www.w3.org/2000/svg">
<path d="M0 4.66667H9V7H0V4.66667Z" fill="black"/>
<path d="M0 2.33333H9V4.66667H0V2.33333Z" fill="white"/>
<path d="M0 0H9V2.33333H0V0Z" fill="#CE1126"/>
<path d="M4.509 3.528L5.27962 4.27L5.2245 2.9225C5.21663 2.71833 5.04563 2.765 4.92075 2.8385C4.79588 2.9225 4.65075 2.9225 4.5 2.86767C4.34812 2.9225 4.20413 2.9225 4.07925 2.8385C3.9555 2.765 3.78338 2.71833 3.7755 2.9225L3.72038 4.27L4.509 3.528Z" fill="white"/>
<path fill-rule="evenodd" clip-rule="evenodd" d="M3.88337 2.76881C3.94514 2.76397 4.02073 2.795 4.08288 2.83192C4.083 2.83199 4.08312 2.83206 4.08323 2.83214C4.20562 2.91446 4.34708 2.91485 4.4976 2.86051C4.49916 2.85994 4.50086 2.85994 4.50242 2.86051C4.65179 2.91484 4.79438 2.91447 4.91677 2.83214C4.91689 2.83206 4.91702 2.83198 4.91714 2.83191C4.97984 2.795 5.05543 2.76397 5.11705 2.76881C5.14819 2.77126 5.17621 2.78292 5.19684 2.80798C5.21736 2.83291 5.2298 2.87014 5.23181 2.9222L5.28693 4.26968C5.28706 4.27275 5.28538 4.2756 5.28269 4.27689C5.28 4.27817 5.27682 4.27765 5.27465 4.27556L4.50894 3.53829L3.72529 4.27562C3.7231 4.27767 3.71994 4.27816 3.71727 4.27687C3.7146 4.27557 3.71294 4.27273 3.71307 4.26968L3.76819 2.9222C3.76819 2.92219 3.76819 2.9222 3.76819 2.9222C3.7702 2.87014 3.78272 2.83289 3.80333 2.80797C3.82405 2.78291 3.85217 2.77126 3.88337 2.76881ZM4.509 3.528L4.51398 3.52244L5.27157 4.25189L5.21719 2.92282C5.21526 2.87279 5.20338 2.83928 5.18572 2.81783C5.16817 2.79652 5.14415 2.78615 5.11595 2.78394C5.05894 2.77945 4.98669 2.80844 4.92455 2.84499C4.7979 2.93008 4.65119 2.93013 4.49999 2.8757C4.3477 2.93013 4.2021 2.93009 4.07544 2.84498C4.01389 2.80844 3.94162 2.77945 3.88447 2.78394C3.85619 2.78616 3.83206 2.79652 3.81443 2.81784C3.79669 2.8393 3.78474 2.87278 3.78281 2.9228L3.72842 4.25219L4.50409 3.52238L4.509 3.528Z" fill="#C09300"/>
<path d="M3.86438 2.87583L3.81038 4.186L3.72038 4.27L3.7755 2.9225C3.80208 2.90136 3.83222 2.88554 3.86438 2.87583ZM3.97238 2.96917L3.92738 4.06583L3.83738 4.1615L3.89138 2.89567C3.90938 2.91433 3.96225 2.95983 3.97238 2.96917ZM4.07025 3.05317L4.03538 3.96783L3.96225 4.04133L4.00725 2.99833C4.02525 3.01583 4.06125 3.04267 4.07025 3.05317ZM4.17712 3.09983L4.14225 3.87917L4.07137 3.93867L4.10625 3.07183C4.12425 3.08 4.15912 3.09983 4.17712 3.09983ZM4.27612 3.09983L4.25025 3.74967L4.17712 3.82317L4.20525 3.108C4.22213 3.108 4.26825 3.108 4.27612 3.09983Z" fill="#C09300"/>
<path d="M4.536 3.675L4.644 4.186L4.608 4.22333L4.57088 4.19417L4.51013 3.73917L4.536 4.19417L4.5 4.24083L4.46513 4.19417L4.491 3.73917L4.42913 4.19417L4.392 4.22333L4.356 4.186L4.464 3.67617H4.536V3.675Z" fill="#C09300"/>
<path fill-rule="evenodd" clip-rule="evenodd" d="M4.45902 3.66975H4.536V3.67431L4.54204 3.67363L4.65077 4.18806L4.60856 4.23183L4.5651 4.19768L4.52556 3.90153L4.54232 4.19625L4.49992 4.25121L4.45881 4.19619L4.47586 3.89648L4.4349 4.19768L4.39144 4.23183L4.34923 4.18805L4.45902 3.66975ZM4.53127 3.68258H4.46898L4.36277 4.18395L4.39256 4.21484L4.42335 4.19065L4.48487 3.73827L4.49718 3.73954L4.47144 4.19214L4.50008 4.23046L4.52968 4.19208L4.50395 3.73954L4.51625 3.73829L4.57665 4.19066L4.60744 4.21484L4.63723 4.18395L4.53127 3.68258Z" fill="#C09300"/>
<path d="M4.25813 3.451L4.04325 4.24083L4.33913 4.2875L4.464 3.69367L4.25813 3.451Z" fill="white"/>
<path fill-rule="evenodd" clip-rule="evenodd" d="M4.25663 3.44417C4.25904 3.44361 4.26156 3.44445 4.26319 3.44638L4.46907 3.68904C4.47049 3.69071 4.47105 3.69298 4.47059 3.69516L4.34572 4.28899C4.34496 4.2926 4.34163 4.29498 4.33811 4.29442L4.04224 4.24775C4.04032 4.24745 4.03862 4.24631 4.03758 4.24463C4.03653 4.24294 4.03623 4.24086 4.03675 4.23893L4.25163 3.4491C4.2523 3.44663 4.25422 3.44474 4.25663 3.44417ZM4.26125 3.46528L4.05182 4.23511L4.33388 4.27959L4.45668 3.69563L4.26125 3.46528Z" fill="#C09300"/>
<path fill-rule="evenodd" clip-rule="evenodd" d="M4.35767 3.65366L4.21817 3.79133C4.21642 3.79305 4.21398 3.79377 4.21162 3.79325C4.20927 3.79274 4.20731 3.79106 4.20638 3.78876L4.1805 3.72459L4.194 3.71874L4.21578 3.77275L4.34758 3.64267L4.35767 3.65366Z" fill="#C09300"/>
<path fill-rule="evenodd" clip-rule="evenodd" d="M4.30598 3.84264L4.27673 3.55914L4.29127 3.55753L4.31856 3.82204L4.3963 3.71591L4.40795 3.72509L4.37466 3.77053L4.41058 3.90048L4.42752 3.87383L4.43973 3.88217L4.41589 3.91968L4.42153 3.94008L4.40747 3.94426L4.40529 3.93636L4.34269 4.03487L4.37328 4.18443L4.35897 4.18757L4.33113 4.05144L4.27325 4.14348C4.27171 4.14592 4.26895 4.14724 4.26616 4.14685C4.26336 4.14646 4.26103 4.14445 4.26017 4.14166L4.23016 4.04529L4.17322 4.14098C4.17169 4.14356 4.16883 4.14494 4.16595 4.1445C4.16306 4.14407 4.1607 4.1419 4.15994 4.13898L4.11381 3.96164C4.11314 3.95905 4.11384 3.95629 4.11564 3.95437L4.20789 3.85637C4.20972 3.85443 4.21242 3.85365 4.21495 3.85432C4.21749 3.855 4.21948 3.85704 4.22018 3.85966L4.24434 3.95087L4.30177 3.87113C4.30351 3.86871 4.30647 3.86759 4.30931 3.86829C4.31214 3.86898 4.31431 3.87136 4.31482 3.87433L4.33884 4.01337L4.39998 3.91716L4.36362 3.78561L4.31907 3.84642C4.31726 3.84889 4.31418 3.84997 4.31129 3.84914C4.3084 3.84831 4.3063 3.84573 4.30598 3.84264ZM4.32692 4.03038L4.3034 3.89421L4.24711 3.97237C4.24544 3.97469 4.24264 3.97582 4.23989 3.97529C4.23715 3.97475 4.23494 3.97264 4.2342 3.96984L4.20945 3.87643L4.12902 3.96187L4.16966 4.11809L4.22603 4.02335C4.22752 4.02083 4.2303 4.01945 4.23313 4.0198C4.23596 4.02016 4.23833 4.02219 4.23921 4.025L4.26937 4.12188L4.32692 4.03038Z" fill="#C09300"/>
<path fill-rule="evenodd" clip-rule="evenodd" d="M4.16707 4.12835C4.16983 4.12883 4.17209 4.1309 4.17289 4.13368L4.20642 4.2513L4.25185 4.17277C4.25333 4.17021 4.25611 4.16879 4.25896 4.16913C4.26181 4.16947 4.2642 4.17151 4.26508 4.17434L4.29996 4.28634L4.28604 4.291L4.25611 4.19488L4.2104 4.2739C4.2089 4.27648 4.20608 4.2779 4.2032 4.27752C4.20033 4.27714 4.19794 4.27504 4.19711 4.27215L4.16314 4.15299L4.11222 4.22771L4.10028 4.21896L4.1599 4.13146C4.16152 4.12908 4.1643 4.12788 4.16707 4.12835Z" fill="#C09300"/>
<path d="M4.5 4.59433C4.725 4.59433 4.93875 4.57567 5.06475 4.5395C5.11763 4.529 5.11763 4.501 5.11763 4.46367C5.17163 4.445 5.14463 4.37967 5.18175 4.37967C5.1435 4.39133 5.13675 4.3155 5.09175 4.32483C5.09175 4.2595 5.02763 4.25133 4.97475 4.27C4.86788 4.30617 4.67888 4.3155 4.5 4.3155C4.32 4.30617 4.13325 4.30617 4.02525 4.26883C3.97238 4.25133 3.90938 4.2595 3.90938 4.32483C3.86438 4.3155 3.8565 4.39017 3.81938 4.37967C3.8565 4.37967 3.82838 4.44617 3.88238 4.46367C3.88238 4.501 3.88238 4.529 3.93638 4.5395C4.06013 4.57567 4.27613 4.59433 4.5 4.59433Z" fill="white"/>
<path fill-rule="evenodd" clip-rule="evenodd" d="M3.94307 4.25254C3.96917 4.24318 4.00134 4.24622 4.02936 4.2555L4.02952 4.25555C4.08175 4.27361 4.15393 4.28287 4.23654 4.2887C4.28744 4.29229 4.34151 4.29454 4.3967 4.29684C4.43098 4.29826 4.46569 4.29971 4.50034 4.3015C4.67942 4.30149 4.86603 4.29204 4.97048 4.25672C4.99857 4.24682 5.031 4.24347 5.05737 4.25264C5.0708 4.25731 5.083 4.26538 5.09179 4.27779C5.09823 4.2869 5.10245 4.29778 5.10425 4.31031C5.11304 4.31129 5.12068 4.31482 5.12728 4.31972C5.13672 4.32674 5.14412 4.33668 5.14999 4.3446L5.1502 4.34488C5.15656 4.35347 5.16116 4.35969 5.16608 4.36359C5.16832 4.36537 5.17032 4.36643 5.17245 4.36677C5.17542 4.36602 5.17853 4.36567 5.18175 4.36567C5.18846 4.36567 5.19416 4.37078 5.19511 4.37767C5.19607 4.38456 5.192 4.39113 5.18556 4.3931C5.18266 4.39398 5.17986 4.39452 5.17716 4.39476C5.17671 4.39512 5.17611 4.39579 5.17539 4.39711C5.17335 4.40081 5.17211 4.40585 5.17014 4.4139C5.16981 4.41523 5.16946 4.41665 5.16909 4.41816C5.16673 4.42764 5.16344 4.43958 5.15643 4.45045C5.1506 4.45948 5.14249 4.46739 5.13111 4.47309C5.13097 4.48822 5.12996 4.50442 5.12295 4.51818C5.11372 4.53631 5.09603 4.54745 5.06783 4.55314C4.93995 4.58973 4.72498 4.60833 4.5 4.60833C4.27622 4.60833 4.05899 4.58975 3.93329 4.55314C3.90465 4.54747 3.88666 4.53641 3.87724 4.51829C3.87009 4.50454 3.86904 4.48835 3.8689 4.47325C3.85755 4.46774 3.84946 4.45992 3.84371 4.45087C3.83677 4.43998 3.83363 4.42793 3.83142 4.41838C3.83104 4.41675 3.8307 4.41523 3.83037 4.4138C3.82855 4.40582 3.8274 4.40077 3.82544 4.39704C3.82464 4.39553 3.82401 4.39489 3.82359 4.39458C3.82109 4.39439 3.8185 4.39393 3.81582 4.39317C3.8093 4.39133 3.8051 4.38476 3.80599 4.37781C3.80689 4.37086 3.81261 4.36567 3.81938 4.36567C3.82228 4.36567 3.82509 4.36596 3.82779 4.36657C3.82995 4.36623 3.83204 4.36514 3.83448 4.36317C3.83929 4.35929 3.84381 4.35331 3.84993 4.3452C3.85021 4.34482 3.8505 4.34444 3.8508 4.34405C3.85677 4.33615 3.86428 4.32635 3.87383 4.31945C3.88047 4.31466 3.88811 4.31123 3.89687 4.31028C3.89864 4.29781 3.90277 4.28696 3.9091 4.27787C3.91775 4.26543 3.92978 4.25731 3.94307 4.25254ZM3.85026 4.3859C3.85345 4.39289 3.85531 4.40127 3.85685 4.40816C3.85713 4.40944 3.8574 4.41067 3.85767 4.41183C3.85982 4.42109 3.8621 4.42895 3.86624 4.43544C3.87007 4.44146 3.87588 4.44689 3.8864 4.4503C3.89204 4.45213 3.89588 4.45754 3.89588 4.46367C3.89588 4.48341 3.8962 4.49576 3.90101 4.505C3.90502 4.51272 3.91385 4.52088 3.93886 4.52574C3.93926 4.52582 3.93965 4.52591 3.94004 4.52602C4.06192 4.56165 4.27637 4.58033 4.5 4.58033C4.72472 4.58033 4.93697 4.56165 5.06115 4.52601C5.0615 4.52591 5.06185 4.52582 5.06221 4.52575C5.08658 4.52091 5.09515 4.51282 5.09908 4.50511C5.10381 4.49582 5.10413 4.4834 5.10413 4.46367C5.10413 4.45764 5.10784 4.45229 5.11336 4.45039C5.12398 4.44671 5.12999 4.44108 5.13398 4.43488C5.13826 4.42826 5.14066 4.42036 5.14294 4.41117C5.14322 4.41005 5.14351 4.40886 5.1438 4.40763C5.14538 4.40105 5.14728 4.39313 5.15037 4.38637C5.15014 4.38619 5.14991 4.38601 5.14968 4.38583C5.14181 4.3796 5.13519 4.37062 5.12978 4.36328C5.12937 4.36273 5.12897 4.36219 5.12857 4.36165C5.12235 4.35324 5.11723 4.3467 5.11156 4.34249C5.10658 4.33879 5.10147 4.3371 5.0944 4.33856C5.09043 4.33938 5.08632 4.33832 5.08319 4.33566C5.08006 4.333 5.07825 4.32903 5.07825 4.32483C5.07825 4.31095 5.07488 4.30123 5.07002 4.29436C5.06514 4.28746 5.058 4.28239 5.04879 4.27919C5.0299 4.27262 5.00387 4.27451 4.9791 4.28325L4.97894 4.28331C4.86969 4.32028 4.67852 4.3295 4.5 4.3295C4.49978 4.3295 4.49955 4.32949 4.49933 4.32948C4.46518 4.32771 4.43059 4.32627 4.39628 4.32484C4.34072 4.32253 4.28588 4.32024 4.23471 4.31663C4.15199 4.3108 4.07683 4.3014 4.02107 4.28214C3.99623 4.27394 3.97049 4.27233 3.9519 4.279C3.94283 4.28226 3.93581 4.28733 3.93099 4.29425C3.9262 4.30114 3.92288 4.3109 3.92288 4.32483C3.92288 4.32903 3.92106 4.333 3.91793 4.33566C3.91481 4.33832 3.91069 4.33938 3.90673 4.33856C3.89958 4.33708 3.89434 4.33876 3.88927 4.34243C3.88352 4.34658 3.87831 4.35304 3.87205 4.36132C3.87156 4.36197 3.87107 4.36262 3.87056 4.36329C3.86517 4.37047 3.85864 4.37915 3.85106 4.38526C3.8508 4.38548 3.85053 4.38569 3.85026 4.3859Z" fill="#C09300"/>
<path d="M4.19513 4.24083C4.26713 4.25133 4.34813 4.2595 4.41113 4.25133C4.44713 4.25133 4.473 4.3155 4.401 4.32483C4.33913 4.333 4.24013 4.32483 4.18725 4.3155C4.11767 4.30287 4.04861 4.2873 3.98025 4.26883C3.91725 4.24083 3.96225 4.18717 3.99825 4.19417C4.06247 4.21551 4.12834 4.23112 4.19513 4.24083ZM4.80488 4.24083C4.73288 4.25133 4.65188 4.2595 4.59113 4.25133C4.55288 4.25133 4.527 4.3155 4.599 4.32483C4.662 4.333 4.75988 4.32483 4.81275 4.3155C4.85775 4.30617 4.95675 4.28867 5.01975 4.26883C5.08275 4.24083 5.03775 4.18717 5.00175 4.19417C4.93753 4.21551 4.87166 4.23112 4.80488 4.24083Z" fill="white"/>
<path fill-rule="evenodd" clip-rule="evenodd" d="M3.98263 4.26164C3.96818 4.25512 3.96103 4.24765 3.95802 4.2411C3.95507 4.23469 3.95557 4.22808 3.95864 4.22182C3.96179 4.2154 3.96762 4.20953 3.97477 4.20567C3.98177 4.20188 3.9895 4.2003 3.99648 4.20154C4.06096 4.22293 4.12707 4.23859 4.19411 4.24834M3.98263 4.26164C4.05062 4.27999 4.1193 4.29546 4.18849 4.30803C4.24102 4.3173 4.33921 4.32534 4.40008 4.31731C4.4171 4.3151 4.42727 4.30978 4.43287 4.30402C4.43832 4.29843 4.44004 4.29189 4.4393 4.28548C4.43775 4.27189 4.42535 4.25918 4.41155 4.25892C4.34757 4.26712 4.26595 4.25882 4.19411 4.24834M3.96801 4.19222C3.97746 4.18711 3.98869 4.18459 3.9996 4.18671C3.9999 4.18677 4.00019 4.18685 4.00048 4.18694C4.06431 4.20815 4.12977 4.22367 4.19614 4.23332C4.26812 4.24382 4.34827 4.25184 4.41022 4.24381C4.41052 4.24377 4.41082 4.24375 4.41113 4.24375C4.43315 4.24375 4.45146 4.263 4.45382 4.28369C4.45506 4.29448 4.45199 4.30574 4.44316 4.3148C4.4345 4.32369 4.42089 4.3299 4.40192 4.33236C4.33904 4.34065 4.23925 4.33237 4.18602 4.32298C4.11624 4.31031 4.04696 4.29469 3.97841 4.27617C3.97805 4.27608 3.97771 4.27595 3.97737 4.2758C3.96066 4.26838 3.94993 4.25873 3.94482 4.24764C3.93962 4.23633 3.94081 4.22471 3.94561 4.21493C3.95033 4.20531 3.95857 4.19732 3.96801 4.19222ZM5.05518 4.24764C5.05007 4.25873 5.03934 4.26838 5.02263 4.2758C5.02238 4.27591 5.02213 4.27601 5.02187 4.27609C4.9714 4.29198 4.89801 4.30638 4.84766 4.31626C4.83472 4.3188 4.8233 4.32105 4.81418 4.32294L4.81398 4.32298C4.76074 4.33237 4.66208 4.34065 4.59809 4.33236C4.57913 4.3299 4.56549 4.3237 4.55686 4.31479C4.54805 4.3057 4.54506 4.2944 4.54647 4.28356C4.5492 4.26272 4.56823 4.24375 4.59113 4.24375C4.59144 4.24375 4.59175 4.24377 4.59207 4.24381C4.65173 4.25183 4.73185 4.24382 4.80386 4.23332C4.87023 4.22367 4.93569 4.20816 4.99952 4.18694C4.99981 4.18685 5.0001 4.18677 5.0004 4.18671C5.01131 4.18459 5.02254 4.18711 5.03199 4.19222C5.04143 4.19732 5.04967 4.20531 5.05439 4.21493C5.05919 4.22471 5.06038 4.23633 5.05518 4.24764ZM4.80589 4.24834C4.73409 4.25881 4.65245 4.26712 4.59068 4.25892C4.57552 4.25917 4.56272 4.27216 4.56097 4.2856C4.56013 4.29198 4.56178 4.29847 4.56717 4.30404C4.57274 4.30978 4.58287 4.3151 4.59991 4.31731C4.66188 4.32534 4.75888 4.3173 4.81142 4.30804C4.82079 4.3061 4.83241 4.30382 4.84549 4.30125C4.89574 4.29139 4.96763 4.27727 5.01723 4.2617C5.03178 4.25516 5.03896 4.24767 5.04198 4.2411C5.04493 4.23469 5.04443 4.22808 5.04136 4.22182C5.03821 4.2154 5.03238 4.20953 5.02523 4.20567C5.01823 4.20188 5.0105 4.2003 5.00352 4.20154C4.93905 4.22294 4.87293 4.2386 4.80589 4.24834Z" fill="#C09300"/>
<path d="M3.97125 4.20467C3.91725 4.19417 3.8925 4.2595 3.90938 4.29683C3.91725 4.27817 3.95438 4.27817 3.96225 4.2595C3.97238 4.2315 3.95438 4.2315 3.97238 4.20467H3.97125ZM4.18725 4.37617C4.18725 4.33883 4.22213 4.3435 4.22213 4.30617C4.22213 4.28867 4.21313 4.2595 4.19513 4.2595C4.18575 4.26006 4.1769 4.26417 4.17027 4.27105C4.16363 4.27794 4.15966 4.28711 4.15913 4.29683C4.15125 4.333 4.18725 4.33883 4.18725 4.37617ZM4.44263 4.27C4.4955 4.27 4.48987 4.3435 4.46513 4.38083C4.46513 4.354 4.42013 4.3435 4.42013 4.32483C4.42013 4.29683 4.46063 4.29683 4.44263 4.27ZM5.02763 4.20467C5.08275 4.19417 5.10862 4.2595 5.09062 4.29683C5.08275 4.27817 5.04562 4.27817 5.03775 4.2595C5.02762 4.2315 5.04562 4.2315 5.02763 4.20467ZM4.815 4.375C4.815 4.33767 4.779 4.34233 4.779 4.305C4.779 4.2875 4.788 4.25833 4.806 4.25833C4.81537 4.25889 4.82422 4.263 4.83086 4.26989C4.8375 4.27677 4.84146 4.28595 4.842 4.29567C4.84987 4.33183 4.81387 4.33767 4.81387 4.375H4.815ZM4.55625 4.27C4.50338 4.27 4.509 4.3435 4.53375 4.38083C4.53375 4.354 4.57875 4.3435 4.57875 4.32483C4.57875 4.29683 4.53825 4.29683 4.55625 4.27Z" fill="white"/>
<path fill-rule="evenodd" clip-rule="evenodd" d="M3.97191 4.19708C3.94165 4.1915 3.91937 4.20726 3.90738 4.22906C3.89556 4.25055 3.89316 4.27882 3.90275 4.30005C3.90397 4.30275 3.9066 4.30445 3.90947 4.30442C3.91234 4.30438 3.91492 4.3026 3.91607 4.29987C3.91718 4.29726 3.91951 4.29479 3.9236 4.29226C3.92772 4.28971 3.93277 4.2876 3.93853 4.28521L3.93881 4.28509C3.94424 4.28284 3.95031 4.28032 3.95552 4.27709C3.96086 4.27379 3.96611 4.26926 3.96895 4.26254C3.969 4.26242 3.96905 4.26229 3.9691 4.26216C3.9719 4.25443 3.97286 4.24828 3.97288 4.24293C3.9729 4.23878 3.97232 4.23511 3.97187 4.23233C3.97177 4.23168 3.97167 4.23108 3.97159 4.23053C3.97117 4.22756 3.97105 4.22528 3.97172 4.22243C3.97244 4.21943 3.97418 4.21526 3.97838 4.209C3.97993 4.20668 3.98012 4.20366 3.97886 4.20115C3.9776 4.19865 3.9751 4.19708 3.97238 4.19708H3.97191ZM3.96021 4.21113C3.94181 4.21103 3.92829 4.22166 3.92009 4.23657C3.91247 4.25041 3.90983 4.26735 3.91241 4.28177C3.91361 4.28085 3.91486 4.28001 3.9161 4.27924C3.92131 4.27601 3.92739 4.27349 3.93281 4.27124L3.9331 4.27113C3.93885 4.26874 3.94391 4.26662 3.94803 4.26407C3.95203 4.26159 3.95435 4.25917 3.95548 4.25662C3.95768 4.25048 3.95825 4.24618 3.95826 4.24286C3.95827 4.24011 3.95794 4.23799 3.95752 4.23536C3.9574 4.23455 3.95726 4.2337 3.95713 4.23276C3.95657 4.22888 3.9562 4.22438 3.95752 4.2188C3.9581 4.21636 3.95898 4.21383 3.96021 4.21113ZM5.02763 4.20467L5.02162 4.209C5.02582 4.21526 5.02756 4.21943 5.02828 4.22243C5.02895 4.22528 5.02883 4.22756 5.02841 4.23053C5.02833 4.23108 5.02823 4.23168 5.02813 4.23233C5.02768 4.23511 5.0271 4.23878 5.02712 4.24293C5.02714 4.24828 5.0281 4.25443 5.0309 4.26216C5.03095 4.26229 5.031 4.26242 5.03105 4.26254C5.03389 4.26926 5.03914 4.27379 5.04448 4.27709C5.04969 4.28032 5.05576 4.28284 5.06119 4.28509L5.06147 4.28521C5.06723 4.2876 5.07228 4.28971 5.0764 4.29226C5.08049 4.29479 5.08282 4.29726 5.08393 4.29987C5.08506 4.30257 5.0876 4.30434 5.09044 4.30441C5.09327 4.30449 5.0959 4.30286 5.09717 4.30022C5.10745 4.2789 5.105 4.2505 5.09286 4.22898C5.08045 4.207 5.05737 4.19129 5.0263 4.19721L5.02763 4.20467ZM5.08024 4.23664C5.07196 4.22199 5.05829 4.21136 5.03979 4.21113C5.04102 4.21383 5.0419 4.21636 5.04248 4.2188C5.0438 4.22438 5.04343 4.22888 5.04287 4.23276C5.04274 4.2337 5.0426 4.23455 5.04248 4.23536C5.04206 4.23799 5.04173 4.24011 5.04174 4.24286C5.04175 4.24618 5.04232 4.25048 5.04452 4.25662C5.04565 4.25917 5.04797 4.26159 5.05197 4.26407C5.0561 4.26662 5.06115 4.26874 5.0669 4.27113L5.06719 4.27124C5.07261 4.27349 5.07869 4.27601 5.0839 4.27924C5.08523 4.28007 5.08656 4.28097 5.08785 4.28197C5.09073 4.26756 5.08809 4.25056 5.08024 4.23664ZM4.79231 4.27845C4.78834 4.28682 4.78631 4.29733 4.78631 4.305C4.78631 4.31293 4.78818 4.31819 4.79076 4.32231C4.79349 4.32668 4.7972 4.33011 4.80182 4.33429L4.80209 4.33454C4.8058 4.33791 4.81011 4.34182 4.81374 4.34682C4.8168 4.3412 4.82041 4.33645 4.82367 4.33215C4.82417 4.3315 4.82465 4.33086 4.82513 4.33023C4.82914 4.3249 4.83225 4.32042 4.83409 4.31539C4.83583 4.31061 4.83653 4.30498 4.83487 4.29734C4.83478 4.29693 4.83472 4.29652 4.8347 4.2961C4.83427 4.28824 4.83106 4.28082 4.82569 4.27525C4.82037 4.26974 4.81331 4.26642 4.80581 4.26592C4.80119 4.26602 4.79639 4.26985 4.79231 4.27845ZM4.82182 4.36732C4.82365 4.35677 4.8292 4.34943 4.83552 4.34107C4.83589 4.34057 4.83627 4.34007 4.83665 4.33956C4.84066 4.33424 4.84507 4.32816 4.84777 4.32075C4.85051 4.31325 4.85137 4.30477 4.84926 4.2946C4.84849 4.28326 4.84379 4.27258 4.83603 4.26452C4.82812 4.25632 4.81758 4.25143 4.80642 4.25076C4.80634 4.25076 4.80626 4.25075 4.80619 4.25075C4.80612 4.25075 4.80606 4.25075 4.806 4.25075C4.79268 4.25075 4.78405 4.26152 4.77919 4.27175C4.77416 4.28235 4.77169 4.29517 4.77169 4.305C4.77169 4.31574 4.77432 4.32389 4.77849 4.33056C4.78242 4.33685 4.78758 4.34153 4.79191 4.34546L4.79218 4.34571C4.7968 4.34989 4.80051 4.35332 4.80324 4.35769C4.80489 4.36033 4.80626 4.36345 4.80702 4.36744C4.80672 4.36983 4.80656 4.37235 4.80656 4.375C4.80656 4.37919 4.80984 4.38258 4.81387 4.38258H4.815C4.81904 4.38258 4.82231 4.37919 4.82231 4.375C4.82231 4.37228 4.82214 4.36972 4.82182 4.36732ZM4.19471 4.25193C4.19485 4.25192 4.19499 4.25192 4.19513 4.25192C4.20845 4.25192 4.21707 4.26268 4.22194 4.27292C4.22696 4.28351 4.22944 4.29634 4.22944 4.30617C4.22944 4.31686 4.2269 4.32498 4.22287 4.33164C4.21906 4.33793 4.21405 4.34261 4.20985 4.34655L4.20959 4.34679C4.20512 4.35098 4.20154 4.3544 4.19889 4.35876C4.19639 4.36289 4.19456 4.36819 4.19456 4.37617H4.17994C4.17994 4.3612 4.17335 4.35248 4.16561 4.34224C4.16523 4.34174 4.16485 4.34124 4.16447 4.34073C4.16046 4.33541 4.15606 4.32932 4.15336 4.32192C4.15062 4.31441 4.14975 4.30594 4.15186 4.29577C4.15264 4.28442 4.15733 4.27374 4.1651 4.26569C4.173 4.25749 4.18354 4.25259 4.19471 4.25193ZM4.18778 4.34872C4.18464 4.34278 4.18086 4.3378 4.17745 4.33332C4.17696 4.33267 4.17647 4.33203 4.176 4.3314C4.17199 4.32607 4.16887 4.32158 4.16704 4.31655C4.16529 4.31178 4.16459 4.30615 4.16626 4.2985C4.16635 4.2981 4.1664 4.29768 4.16643 4.29727C4.16686 4.28941 4.17007 4.28198 4.17544 4.27642C4.18075 4.2709 4.18782 4.26759 4.19531 4.26709C4.19993 4.26719 4.20473 4.27102 4.20881 4.27962C4.21279 4.28799 4.21481 4.2985 4.21481 4.30617C4.21481 4.31414 4.21299 4.31944 4.21048 4.32357C4.20784 4.32794 4.20425 4.33136 4.19979 4.33554L4.19952 4.33579C4.19577 4.3393 4.19139 4.34341 4.18778 4.34872ZM4.43614 4.26649C4.43741 4.26399 4.4399 4.26242 4.44263 4.26242C4.45763 4.26242 4.46926 4.26771 4.47735 4.27698C4.48526 4.28604 4.48912 4.29815 4.49026 4.3107C4.49255 4.33564 4.48443 4.3651 4.47115 4.38513C4.46934 4.38787 4.46601 4.38906 4.46296 4.38808C4.4599 4.38709 4.45781 4.38415 4.45781 4.38083C4.45781 4.37653 4.45606 4.37254 4.45257 4.36835C4.44898 4.36406 4.444 4.3601 4.43838 4.35595C4.43745 4.35526 4.43649 4.35456 4.43552 4.35385C4.43095 4.35051 4.42605 4.34693 4.4222 4.34326C4.41762 4.33889 4.41281 4.33282 4.41281 4.32483C4.41281 4.30841 4.42392 4.29913 4.43112 4.29312C4.43195 4.29243 4.43272 4.29178 4.43342 4.29117C4.43744 4.28767 4.43917 4.28555 4.43972 4.28369C4.44006 4.28256 4.44041 4.27998 4.43662 4.27433C4.43507 4.27201 4.43488 4.26899 4.43614 4.26649ZM4.45434 4.27925C4.45954 4.28091 4.46349 4.2837 4.46651 4.28716C4.47164 4.29304 4.47474 4.30164 4.4757 4.31213C4.47717 4.32811 4.47349 4.34683 4.46666 4.36248C4.46572 4.36106 4.46469 4.35971 4.46362 4.35842C4.45877 4.35262 4.4525 4.34775 4.44687 4.3436C4.44576 4.34277 4.44467 4.34198 4.44363 4.34122C4.43908 4.33789 4.43518 4.33504 4.43211 4.33211C4.42826 4.32843 4.42744 4.32618 4.42744 4.32483C4.42744 4.31602 4.43277 4.31144 4.44045 4.30484C4.44122 4.30418 4.44201 4.3035 4.44283 4.30279C4.44668 4.29943 4.45171 4.29478 4.45368 4.28821C4.45457 4.28526 4.45477 4.28227 4.45434 4.27925ZM4.52152 4.27698C4.52961 4.26771 4.54125 4.26242 4.55625 4.26242C4.55897 4.26242 4.56147 4.26399 4.56273 4.26649C4.56399 4.26899 4.56381 4.27201 4.56225 4.27433C4.55846 4.27998 4.55881 4.28256 4.55915 4.28369C4.55971 4.28555 4.56143 4.28767 4.56545 4.29117C4.56615 4.29178 4.56693 4.29243 4.56775 4.29312C4.57495 4.29913 4.58606 4.30841 4.58606 4.32483C4.58606 4.33282 4.58126 4.33889 4.57667 4.34326C4.57283 4.34693 4.56793 4.35051 4.56335 4.35385C4.56238 4.35456 4.56142 4.35526 4.56049 4.35595C4.55487 4.3601 4.5499 4.36406 4.54631 4.36835C4.54281 4.37254 4.54106 4.37653 4.54106 4.38083C4.54106 4.38415 4.53898 4.38709 4.53592 4.38808C4.53286 4.38906 4.52954 4.38787 4.52772 4.38513C4.51445 4.3651 4.50633 4.33564 4.50861 4.3107C4.50976 4.29815 4.51362 4.28604 4.52152 4.27698ZM4.53222 4.36248C4.52538 4.34683 4.52171 4.32811 4.52317 4.31213C4.52413 4.30164 4.52724 4.29304 4.53237 4.28716C4.53538 4.2837 4.53933 4.28091 4.54454 4.27925C4.54411 4.28227 4.5443 4.28526 4.54519 4.28821C4.54717 4.29478 4.55219 4.29943 4.55605 4.30279C4.55686 4.3035 4.55766 4.30418 4.55842 4.30484C4.56611 4.31144 4.57144 4.31602 4.57144 4.32483C4.57144 4.32618 4.57062 4.32843 4.56677 4.33211C4.5637 4.33504 4.55979 4.33789 4.55525 4.34122C4.5542 4.34198 4.55312 4.34277 4.55201 4.3436C4.54638 4.34775 4.5401 4.35262 4.53525 4.35842C4.53418 4.35971 4.53316 4.36106 4.53222 4.36248Z" fill="#C09300"/>
<path d="M3.99038 4.22333C4.00838 4.22333 4.03538 4.2315 4.04325 4.242L3.99038 4.22333ZM4.07925 4.25133C4.08825 4.25133 4.12425 4.2595 4.14113 4.27L4.07925 4.25133ZM4.401 4.28867C4.38413 4.28867 4.34813 4.28867 4.33913 4.29683L4.401 4.2875V4.28867ZM4.30313 4.28867C4.293 4.27817 4.25813 4.27817 4.24013 4.28867H4.30313ZM5.00963 4.22333C4.99054 4.22358 4.97202 4.23012 4.95675 4.242L5.00963 4.22333ZM4.92188 4.25133C4.91063 4.25133 4.87688 4.2595 4.85888 4.27L4.92188 4.25133ZM4.599 4.28867C4.61588 4.28867 4.65188 4.28867 4.662 4.29683L4.599 4.2875V4.28867ZM4.69688 4.28867C4.707 4.27817 4.74188 4.27817 4.75988 4.28867H4.69688Z" fill="white"/>
<path fill-rule="evenodd" clip-rule="evenodd" d="M5.01461 4.22244C5.01504 4.22499 5.01361 4.22747 5.01126 4.2283L4.95838 4.24697C4.95603 4.2478 4.95344 4.24673 4.95227 4.24445C4.95111 4.24217 4.95172 4.23935 4.95371 4.2378C4.96984 4.22525 4.9894 4.21835 5.00956 4.21808C5.01205 4.21805 5.01419 4.2199 5.01461 4.22244ZM3.98538 4.22248C3.98579 4.21994 3.9879 4.21808 3.99038 4.21808C4 4.21808 4.01178 4.22024 4.02217 4.22373C4.02739 4.22549 4.03237 4.22761 4.03664 4.23006C4.04085 4.23246 4.04468 4.23535 4.04725 4.23878C4.04862 4.24061 4.04867 4.24316 4.04737 4.24505C4.04608 4.24694 4.04374 4.24772 4.04162 4.24697L3.98874 4.2283C3.9864 4.22748 3.98498 4.22501 3.98538 4.22248ZM4.07424 4.25059C4.07459 4.24801 4.07673 4.24608 4.07925 4.24608C4.08447 4.24608 4.09628 4.2483 4.10853 4.25165C4.12086 4.25503 4.13465 4.25985 4.14373 4.2655C4.14591 4.26686 4.14678 4.26968 4.14576 4.2721C4.14475 4.27452 4.14215 4.27578 4.13971 4.27504L4.07784 4.25637C4.07542 4.25564 4.07388 4.25318 4.07424 4.25059ZM4.8916 4.25166C4.90377 4.24828 4.91555 4.24608 4.92188 4.24608C4.9244 4.24608 4.92654 4.24801 4.92689 4.25061C4.92724 4.2532 4.92569 4.25566 4.92327 4.25638L4.86027 4.27505C4.8578 4.27578 4.85519 4.27448 4.8542 4.27202C4.85321 4.26957 4.85416 4.26673 4.85639 4.26542C4.86594 4.25986 4.87935 4.25505 4.8916 4.25166ZM4.29279 4.27767C4.29815 4.27909 4.30324 4.28136 4.3067 4.28495C4.30815 4.28646 4.30859 4.28871 4.3078 4.29068C4.30702 4.29264 4.30517 4.29392 4.30313 4.29392H4.24013C4.23782 4.29392 4.23581 4.29231 4.23523 4.29C4.23464 4.28769 4.23564 4.28526 4.23764 4.28409C4.24766 4.27825 4.26183 4.27554 4.27458 4.27554C4.28101 4.27554 4.28732 4.27623 4.29279 4.27767ZM4.72542 4.27554C4.73817 4.27554 4.75234 4.27825 4.76236 4.28409C4.76436 4.28526 4.76536 4.28769 4.76477 4.29C4.76419 4.29231 4.76218 4.29392 4.75988 4.29392H4.69688C4.69483 4.29392 4.69298 4.29264 4.6922 4.29068C4.69141 4.28871 4.69185 4.28646 4.6933 4.28495C4.69676 4.28136 4.70185 4.27909 4.70721 4.27767C4.71268 4.27623 4.71899 4.27554 4.72542 4.27554ZM4.40431 4.28353C4.40542 4.28453 4.40606 4.28598 4.40606 4.2875V4.28867C4.40606 4.29157 4.4038 4.29392 4.401 4.29392C4.39878 4.29392 4.39625 4.29392 4.39351 4.29394L4.33985 4.30203C4.33763 4.30236 4.33547 4.30114 4.33453 4.29903C4.33359 4.29692 4.3341 4.29441 4.33579 4.29288C4.33906 4.28992 4.34409 4.28817 4.3491 4.28699C4.35434 4.28576 4.36048 4.28497 4.3667 4.28445C4.37563 4.28371 4.38503 4.2835 4.39274 4.28344L4.40027 4.2823C4.40173 4.28209 4.4032 4.28253 4.40431 4.28353ZM4.59568 4.28353C4.59679 4.28254 4.59826 4.28209 4.59972 4.2823L4.6074 4.28344C4.61509 4.2835 4.62447 4.28371 4.63343 4.28445C4.63973 4.28497 4.64596 4.28576 4.65134 4.28698C4.65654 4.28816 4.66164 4.28989 4.66511 4.29269C4.66692 4.29415 4.66756 4.29669 4.66666 4.29888C4.66576 4.30108 4.66356 4.30237 4.66128 4.30203L4.60665 4.29394C4.60384 4.29392 4.60126 4.29392 4.599 4.29392C4.5962 4.29392 4.59394 4.29157 4.59394 4.28867V4.2875C4.59394 4.28598 4.59457 4.28453 4.59568 4.28353Z" fill="#C09300"/>
<path d="M3.97463 4.37033C3.969 4.36917 3.96563 4.36333 3.96788 4.35867C3.969 4.3505 3.97463 4.347 3.97913 4.34933C3.98363 4.34933 3.98925 4.35633 3.98925 4.35867L3.98475 4.36683L3.9825 4.368C3.9825 4.37033 3.978 4.37033 3.97463 4.37033ZM4.59338 4.41583C4.59113 4.41583 4.58663 4.41 4.58663 4.40767C4.58663 4.403 4.59338 4.396 4.59788 4.396L4.60688 4.40067C4.61025 4.40417 4.61025 4.41117 4.60575 4.41467C4.6035 4.417 4.59675 4.417 4.59338 4.41467V4.41583ZM4.59675 4.445C4.59225 4.44267 4.59113 4.44033 4.59 4.43567C4.59 4.42983 4.59 4.42867 4.59563 4.42517L4.60013 4.42283L4.60463 4.42517C4.60913 4.4275 4.6125 4.42983 4.6125 4.4345C4.6125 4.438 4.60913 4.4415 4.60463 4.44383C4.60125 4.44617 4.60013 4.44617 4.59675 4.44383V4.445Z" fill="#C09300"/>
<path d="M4.02525 4.31667C4.02075 4.31667 4.01513 4.32133 4.01175 4.32367C4.005 4.32483 3.996 4.3295 3.98925 4.32367C3.9825 4.3225 3.9735 4.32367 3.97238 4.333C3.9735 4.34117 3.98363 4.34467 3.99038 4.34C3.99488 4.33417 4.00725 4.3295 4.0095 4.34C4.00388 4.34933 4.005 4.35983 4.0005 4.368C4.0005 4.37383 3.99713 4.3785 3.99488 4.38317C3.98925 4.38317 3.98363 4.38317 3.97913 4.38667C3.97563 4.38667 3.97219 4.38751 3.96906 4.38913C3.96594 4.39075 3.96322 4.3931 3.96113 4.396C3.95663 4.403 3.95213 4.41 3.951 4.41933C3.95213 4.42633 3.96225 4.42867 3.969 4.42983L3.9915 4.43683L4.0275 4.44733C4.0455 4.45317 4.0635 4.4555 4.0815 4.46017L4.08713 4.46133C4.095 4.46367 4.09838 4.4555 4.09838 4.44967L4.10963 4.40767C4.11188 4.40183 4.11525 4.39017 4.10513 4.3925C4.0995 4.396 4.09388 4.40183 4.08713 4.40183C4.077 4.40183 4.08263 4.4135 4.08713 4.417C4.08713 4.424 4.08488 4.43217 4.0815 4.438C4.07475 4.4415 4.068 4.438 4.06125 4.43567C4.05563 4.43567 4.04213 4.43217 4.04775 4.424L4.05338 4.403C4.05675 4.396 4.05675 4.38783 4.059 4.37967C4.0545 4.3715 4.04775 4.38317 4.04213 4.38433C4.03763 4.38667 4.02413 4.38783 4.03088 4.396C4.03763 4.40067 4.03312 4.40883 4.03088 4.41583C4.03088 4.424 4.02188 4.4275 4.01513 4.424C4.00838 4.424 3.99825 4.41817 4.00388 4.41117L4.0095 4.39017L4.01738 4.36683C4.01738 4.35867 4.02075 4.35283 4.02413 4.34583C4.02413 4.33767 4.02975 4.33067 4.02975 4.3225C4.02975 4.319 4.0275 4.31783 4.02525 4.31783V4.31667ZM3.98363 4.40183C3.98414 4.40153 3.98472 4.40136 3.98531 4.40136C3.98591 4.40136 3.98649 4.40153 3.987 4.40183C3.98925 4.40417 3.98925 4.4065 3.987 4.40883L3.98363 4.41117C3.978 4.41117 3.97688 4.41 3.97688 4.40767C3.97688 4.4065 3.97688 4.40533 3.98025 4.40417C3.98162 4.40314 3.98314 4.40236 3.98475 4.40183H3.98363ZM3.97238 4.46017C3.96675 4.4555 3.96788 4.452 3.97575 4.445C3.98025 4.44267 3.98138 4.44267 3.98588 4.44617C3.99263 4.452 3.99263 4.4555 3.98588 4.46133C3.98363 4.46367 3.9825 4.46367 3.98025 4.46367C3.97688 4.46367 3.97575 4.46367 3.97238 4.46133V4.46017ZM4.00613 4.47183C4.00361 4.47102 4.0015 4.46923 4.00024 4.46684C3.99898 4.46444 3.99867 4.46163 3.99938 4.459C4.00163 4.45433 4.00275 4.45317 4.0095 4.45317C4.01738 4.45317 4.0185 4.45433 4.01963 4.46133C4.01963 4.466 4.01963 4.46717 4.01625 4.4695C4.015 4.47053 4.01355 4.47127 4.01199 4.47167C4.01044 4.47208 4.00882 4.47213 4.00725 4.47183H4.00613ZM5.00963 4.47183C5.00738 4.47067 5.00625 4.4695 5.00625 4.466C5.00625 4.46133 5.0085 4.45783 5.01525 4.4555C5.022 4.452 5.0265 4.452 5.02875 4.45783C5.03213 4.46483 5.03212 4.46717 5.02763 4.47183C5.02537 4.47533 5.02425 4.47533 5.01863 4.47533C5.013 4.47533 5.01188 4.47533 5.00963 4.473V4.47183ZM4.05338 4.48583C4.04888 4.48583 4.04663 4.48117 4.04663 4.4765C4.04663 4.473 4.04663 4.47183 4.04888 4.4695L4.05563 4.46717L4.06238 4.46833C4.068 4.473 4.06913 4.47767 4.06575 4.48233C4.06238 4.487 4.059 4.487 4.05225 4.48583H4.05338ZM4.29863 4.4975L4.29638 4.494C4.29638 4.487 4.29638 4.48117 4.29863 4.47417C4.29975 4.46833 4.29863 4.4625 4.30088 4.45667L4.30538 4.424C4.30538 4.41817 4.30538 4.41233 4.30763 4.40767C4.30875 4.39833 4.30763 4.39017 4.30988 4.382C4.30988 4.3785 4.31325 4.37033 4.31663 4.375C4.32113 4.382 4.32675 4.38667 4.33238 4.3925C4.33688 4.396 4.33238 4.40067 4.329 4.40183C4.3245 4.403 4.32338 4.40883 4.32338 4.4135L4.32113 4.4275C4.32113 4.43567 4.32113 4.44267 4.31888 4.45083L4.31775 4.47183L4.3155 4.48583C4.3155 4.4905 4.3155 4.49633 4.311 4.49867C4.30763 4.501 4.302 4.501 4.29975 4.4975H4.29863ZM4.63275 4.38317L4.61812 4.39717C4.61138 4.403 4.62375 4.40533 4.62488 4.41C4.62713 4.417 4.62713 4.424 4.62713 4.431C4.62937 4.438 4.6305 4.44383 4.62938 4.45083C4.62938 4.459 4.62038 4.45667 4.61588 4.46133C4.61025 4.46367 4.608 4.4695 4.60463 4.473C4.60195 4.47885 4.60042 4.4852 4.60013 4.49167C4.60013 4.4975 4.59675 4.50333 4.60013 4.508L4.60125 4.51033H4.60688L4.62375 4.50917C4.63725 4.50683 4.65188 4.50683 4.66538 4.50567L4.69012 4.50333C4.69688 4.5045 4.70025 4.4975 4.70025 4.49167C4.69575 4.4835 4.69913 4.47533 4.69575 4.46833C4.6935 4.459 4.69463 4.45083 4.6935 4.44267C4.6935 4.43567 4.68563 4.43333 4.68225 4.438C4.67775 4.44267 4.671 4.44383 4.66875 4.4485C4.66538 4.4555 4.6755 4.4555 4.67775 4.46017L4.67888 4.47767C4.68 4.48467 4.67325 4.48467 4.66763 4.48583C4.662 4.48817 4.65413 4.48933 4.65075 4.48233C4.6485 4.4765 4.6485 4.47067 4.6485 4.46483C4.6485 4.45317 4.64513 4.44383 4.64513 4.43333C4.64513 4.42167 4.64175 4.40883 4.64175 4.396C4.64175 4.39017 4.64062 4.382 4.63275 4.38317ZM4.626 4.47883H4.62938V4.48817L4.626 4.48933C4.62453 4.48982 4.62302 4.49021 4.6215 4.4905C4.62075 4.49053 4.62 4.49053 4.61925 4.4905C4.617 4.48817 4.617 4.48467 4.62038 4.48117L4.626 4.47883ZM4.2885 4.3715C4.28513 4.3715 4.2795 4.37967 4.275 4.3785C4.26488 4.37967 4.266 4.39017 4.27388 4.39367V4.403C4.275 4.41233 4.26938 4.4205 4.2705 4.42983C4.2705 4.43917 4.26713 4.44967 4.26713 4.46017C4.26375 4.47067 4.26375 4.48117 4.26263 4.49167C4.2615 4.501 4.25475 4.4975 4.24913 4.49517V4.4835C4.25025 4.473 4.2435 4.47067 4.23563 4.4695C4.22775 4.4695 4.22438 4.46367 4.22663 4.45667C4.23 4.452 4.23788 4.45317 4.2435 4.45317C4.25475 4.4555 4.25363 4.44033 4.248 4.4345C4.2435 4.4275 4.2345 4.42283 4.23225 4.41583C4.23225 4.4065 4.22663 4.396 4.21875 4.39133C4.20638 4.39017 4.19625 4.40067 4.19288 4.41233C4.18725 4.41233 4.18163 4.41467 4.17712 4.417C4.16925 4.41933 4.158 4.43333 4.16925 4.43917C4.17488 4.44033 4.194 4.445 4.185 4.45317C4.1805 4.4625 4.1715 4.4625 4.16363 4.46017C4.15575 4.46017 4.14675 4.4555 4.14675 4.44617C4.14563 4.43683 4.14563 4.4275 4.14225 4.41933C4.14 4.41 4.12988 4.41233 4.12875 4.42167C4.12088 4.4275 4.122 4.438 4.12762 4.445C4.131 4.45317 4.12763 4.46367 4.12425 4.47067C4.122 4.48233 4.11075 4.48233 4.10288 4.48467C4.0995 4.487 4.08488 4.48467 4.0905 4.49283C4.09894 4.49686 4.10837 4.49808 4.1175 4.49633C4.1265 4.49633 4.13438 4.48817 4.14 4.48C4.14563 4.47417 4.15575 4.47767 4.16475 4.47767C4.17263 4.47767 4.18163 4.4835 4.19063 4.47883C4.19288 4.473 4.20413 4.46133 4.2075 4.473C4.2075 4.4835 4.21538 4.48817 4.22438 4.487C4.2345 4.487 4.23 4.494 4.23 4.501C4.23 4.5115 4.23788 4.51733 4.24688 4.522H4.25588C4.26375 4.5185 4.27275 4.515 4.27613 4.50567C4.2795 4.4975 4.2795 4.48817 4.28175 4.48C4.284 4.46717 4.28625 4.45317 4.28625 4.44033C4.28963 4.42867 4.2885 4.41583 4.29075 4.403L4.29413 4.37617C4.29413 4.37033 4.29188 4.37033 4.2885 4.3715ZM4.21313 4.41933C4.21425 4.41933 4.21538 4.42167 4.21538 4.42517C4.21538 4.42983 4.21763 4.43333 4.221 4.4345V4.438L4.212 4.44033C4.20638 4.44033 4.20188 4.438 4.1985 4.4345L4.19625 4.43217L4.19963 4.42983L4.20525 4.424C4.20863 4.4205 4.21088 4.41933 4.21313 4.41933ZM4.95563 4.32717C4.94915 4.32765 4.94274 4.32882 4.9365 4.33067C4.92525 4.33067 4.91963 4.34233 4.93088 4.34933C4.93763 4.36683 4.94775 4.34467 4.959 4.347C4.97475 4.34933 4.97587 4.368 4.97925 4.382C4.97925 4.39483 4.98375 4.40767 4.98712 4.4205C4.99837 4.43333 4.97925 4.4415 4.97138 4.43217C4.96463 4.424 4.94888 4.41467 4.941 4.42517C4.93088 4.42983 4.92975 4.44383 4.92188 4.4485C4.90838 4.452 4.90725 4.4345 4.89937 4.4275C4.89263 4.417 4.88025 4.41583 4.87013 4.4135C4.86562 4.403 4.86788 4.3855 4.85888 4.3785C4.84988 4.382 4.83413 4.39833 4.84763 4.4065C4.85888 4.41817 4.842 4.42283 4.83638 4.42983C4.82737 4.44033 4.82513 4.45317 4.82513 4.46483C4.8105 4.473 4.80825 4.4555 4.806 4.445C4.806 4.43217 4.79475 4.43567 4.78688 4.44033C4.77563 4.445 4.77113 4.4555 4.76438 4.46367V4.487C4.76663 4.4975 4.77787 4.49283 4.78463 4.49167C4.79588 4.487 4.80038 4.49983 4.79138 4.50683C4.78463 4.51383 4.76662 4.51033 4.76888 4.52317H4.78688C4.79813 4.51967 4.81163 4.51033 4.81275 4.49633C4.815 4.48467 4.83187 4.48583 4.84088 4.4835C4.85213 4.48 4.86675 4.47883 4.87013 4.49517C4.878 4.50333 4.89488 4.51267 4.90387 4.501C4.90816 4.49818 4.91159 4.49417 4.91378 4.48943C4.91597 4.48468 4.91683 4.47939 4.91625 4.47417C4.91513 4.46483 4.93088 4.46483 4.93538 4.47067C4.941 4.48 4.959 4.47767 4.968 4.47067C4.977 4.46483 4.97925 4.452 4.99275 4.452L5.0535 4.4345C5.06925 4.431 5.05125 4.4205 5.04675 4.4135C5.0355 4.40767 5.02425 4.43333 5.01075 4.4205C4.9995 4.41233 5.00063 4.39717 4.99725 4.38433C4.99388 4.368 4.995 4.34933 4.98375 4.33767C4.977 4.3295 4.96575 4.32717 4.95563 4.32717ZM4.87913 4.438C4.88025 4.438 4.8825 4.438 4.88475 4.44033C4.88925 4.44267 4.89262 4.44733 4.89262 4.452C4.89262 4.45433 4.89263 4.45433 4.88925 4.4555L4.88363 4.45783C4.88138 4.45783 4.87575 4.45433 4.87575 4.452V4.44733C4.8735 4.44267 4.8735 4.44267 4.87575 4.44033L4.87913 4.438ZM4.95225 4.44267C4.95675 4.44267 4.959 4.44267 4.96125 4.44617C4.96238 4.45083 4.96125 4.45317 4.95675 4.4555L4.95113 4.45783L4.94663 4.45433C4.94438 4.45317 4.94325 4.452 4.94325 4.44967C4.94325 4.44617 4.94775 4.44267 4.95225 4.4415V4.44267ZM4.851 4.44267C4.85325 4.44267 4.85438 4.44267 4.8555 4.445C4.85775 4.44733 4.85888 4.4485 4.85888 4.452V4.459C4.85888 4.4625 4.85888 4.46133 4.85213 4.46133C4.84538 4.46133 4.84425 4.46133 4.84425 4.45433C4.84425 4.44967 4.84425 4.4485 4.84763 4.44617C4.84875 4.44383 4.851 4.44383 4.85213 4.44383L4.851 4.44267ZM4.79025 4.46017C4.79131 4.4605 4.79228 4.4611 4.79306 4.46192C4.79385 4.46273 4.79443 4.46373 4.79475 4.46483C4.79475 4.46833 4.79475 4.47067 4.7925 4.47183C4.78912 4.473 4.7835 4.47417 4.78125 4.47183C4.78122 4.47145 4.78122 4.47106 4.78125 4.47067C4.779 4.4695 4.779 4.46833 4.78125 4.46717V4.466L4.7835 4.4625C4.78419 4.46136 4.78524 4.46051 4.78647 4.46009C4.7877 4.45966 4.78904 4.45969 4.79025 4.46017ZM4.89375 4.47417L4.89937 4.47533V4.48233H4.88588L4.88475 4.48C4.88475 4.47767 4.88475 4.4765 4.887 4.47533L4.89375 4.47417ZM4.70138 4.53017C4.70025 4.53017 4.698 4.529 4.70025 4.52783C4.70138 4.52433 4.70588 4.52317 4.70925 4.52083C4.71538 4.51841 4.7208 4.51439 4.725 4.50917C4.725 4.5045 4.7295 4.50217 4.7295 4.4975L4.72837 4.48117C4.72686 4.47627 4.72365 4.47211 4.71938 4.4695C4.716 4.46833 4.7115 4.46717 4.71038 4.4625C4.71038 4.459 4.71375 4.4555 4.71488 4.452L4.72163 4.438C4.725 4.4345 4.7295 4.438 4.73063 4.44033L4.73625 4.452C4.73963 4.4555 4.74188 4.459 4.743 4.46367C4.74525 4.46833 4.7475 4.47183 4.7475 4.47533L4.74975 4.4905C4.74975 4.49633 4.74975 4.50333 4.7475 4.50917L4.74075 4.5185C4.73738 4.522 4.734 4.5255 4.7295 4.52667C4.72613 4.52783 4.72388 4.53133 4.71938 4.53133H4.7025L4.70138 4.53017ZM4.62375 4.53483C4.6215 4.5325 4.62038 4.53133 4.62038 4.52783C4.62038 4.52433 4.62038 4.52433 4.62375 4.52083C4.62825 4.51617 4.6305 4.51617 4.6395 4.52083C4.64738 4.5255 4.65075 4.5255 4.65075 4.522C4.65188 4.51967 4.65637 4.51617 4.662 4.51617C4.66408 4.51625 4.66607 4.51707 4.66763 4.5185C4.66988 4.52083 4.671 4.522 4.671 4.52667C4.671 4.5325 4.671 4.5325 4.66763 4.536C4.66425 4.53833 4.66425 4.53833 4.65975 4.53833C4.65775 4.53822 4.65583 4.53749 4.65423 4.53625C4.65262 4.535 4.65141 4.53329 4.65075 4.53133C4.65075 4.529 4.65075 4.52783 4.6485 4.53017L4.64625 4.53133C4.644 4.53133 4.6395 4.53483 4.63725 4.53717L4.63163 4.53833C4.62713 4.53833 4.62713 4.53833 4.62375 4.53483ZM4.401 4.431C4.39313 4.431 4.38525 4.438 4.38413 4.44617C4.38638 4.45433 4.39313 4.46367 4.38863 4.47183C4.392 4.4835 4.37963 4.48817 4.37175 4.48233C4.36725 4.47067 4.365 4.459 4.35713 4.44733C4.34812 4.445 4.34475 4.46017 4.338 4.466C4.34138 4.47417 4.35038 4.48233 4.3515 4.49283C4.35375 4.5045 4.347 4.51617 4.33913 4.52083C4.33125 4.529 4.32 4.52667 4.311 4.52783C4.29975 4.53483 4.31888 4.53717 4.3245 4.53717C4.33575 4.53833 4.34813 4.53717 4.35825 4.52783C4.36613 4.52433 4.365 4.508 4.37512 4.50683L4.42913 4.51033C4.43813 4.51267 4.45275 4.50917 4.4595 4.51617C4.4595 4.52783 4.47075 4.53717 4.48088 4.54183C4.4865 4.54417 4.49213 4.536 4.49775 4.53483C4.509 4.53133 4.50563 4.51733 4.51238 4.5115H4.56862C4.57088 4.5115 4.572 4.50567 4.57538 4.50333L4.57313 4.48117C4.56975 4.47183 4.57313 4.46017 4.5675 4.452C4.55738 4.44967 4.5495 4.45783 4.5405 4.459C4.52925 4.46367 4.52138 4.47417 4.52025 4.48583C4.51463 4.49633 4.5045 4.4835 4.509 4.47417L4.50788 4.4625C4.50225 4.45667 4.49213 4.459 4.48425 4.45783L4.4505 4.4555C4.43925 4.4555 4.42913 4.45667 4.42013 4.45433C4.40887 4.45433 4.40887 4.44267 4.40887 4.43333C4.40663 4.43156 4.40381 4.43072 4.401 4.431ZM4.4235 4.47417L4.43475 4.47533H4.44938C4.46063 4.47767 4.47188 4.47767 4.48313 4.47767C4.48538 4.47767 4.48763 4.48 4.48988 4.48233V4.50567C4.48988 4.50917 4.48988 4.51383 4.48763 4.515C4.48704 4.51593 4.48627 4.51672 4.48538 4.51733C4.48373 4.51703 4.48216 4.51635 4.4808 4.51534C4.47944 4.51433 4.47831 4.51302 4.4775 4.5115V4.49517C4.47527 4.49321 4.47253 4.49199 4.46962 4.49167L4.44038 4.4905L4.41788 4.48933C4.4145 4.48817 4.41 4.48933 4.40775 4.48467C4.4055 4.48233 4.40888 4.47767 4.41225 4.4765C4.41578 4.47486 4.41963 4.47406 4.4235 4.47417ZM4.55063 4.47767C4.55175 4.47767 4.55288 4.47767 4.55288 4.48117L4.55513 4.487C4.55513 4.48817 4.55513 4.48933 4.55288 4.48933C4.54725 4.49167 4.54163 4.49167 4.53938 4.48933C4.53938 4.48817 4.53938 4.4835 4.54163 4.48233L4.55063 4.47767Z" fill="#C09300"/>
<path d="M4.5 3.81733C4.86675 3.52567 4.83525 3.09633 4.83525 3.09633L4.80713 3.09867C4.7295 3.09867 4.54613 3.052 4.50338 2.99483C4.45837 3.04733 4.26938 3.09983 4.19288 3.09983L4.16475 3.09633C4.16475 3.09633 4.13213 3.5245 4.5 3.81733Z" fill="white"/>
<path fill-rule="evenodd" clip-rule="evenodd" d="M4.5037 2.9848L4.50826 2.9909C4.51806 3.004 4.53649 3.01711 4.56068 3.02941C4.58469 3.04162 4.61371 3.0527 4.64394 3.06204C4.70439 3.08071 4.76886 3.0922 4.80688 3.09225L4.84095 3.08942L4.84142 3.09585L4.83525 3.09633C4.84142 3.09585 4.84142 3.09584 4.84142 3.09585L4.84143 3.09595L4.84144 3.09621L4.84151 3.09718C4.84156 3.09804 4.84162 3.09929 4.8417 3.10093C4.84184 3.10422 4.842 3.10904 4.84207 3.11527C4.84222 3.12773 4.84202 3.1458 4.84062 3.16839C4.83782 3.21354 4.83024 3.27676 4.81112 3.34915C4.77289 3.49396 4.68845 3.67555 4.50377 3.82243L4.5 3.82542L4.49623 3.82242C4.31099 3.67497 4.22655 3.49338 4.18845 3.34871C4.16941 3.27639 4.16194 3.21328 4.15923 3.16821C4.15787 3.14567 4.1577 3.12764 4.15788 3.11521C4.15797 3.10899 4.15814 3.10418 4.15829 3.1009C4.15837 3.09927 4.15844 3.09801 4.15849 3.09716L4.15856 3.09619L4.15857 3.09593L4.15858 3.09584C4.15858 3.09583 4.15858 3.09583 4.16475 3.09633L4.15858 3.09584L4.15909 3.08917L4.19324 3.09342C4.23066 3.09333 4.29613 3.08044 4.35814 3.06088C4.38917 3.0511 4.4191 3.03972 4.444 3.02758C4.46908 3.01536 4.48837 3.00268 4.49875 2.99057L4.5037 2.9848ZM4.17057 3.10352C4.17045 3.10652 4.17032 3.11051 4.17025 3.1154C4.17008 3.12753 4.17024 3.14523 4.17158 3.16741C4.17424 3.21178 4.18161 3.274 4.20039 3.34533C4.23769 3.48697 4.31999 3.6644 4.5 3.80923C4.67945 3.66498 4.76175 3.48755 4.79919 3.34576C4.81804 3.27436 4.82551 3.21202 4.82827 3.16756C4.82964 3.14534 4.82984 3.12759 4.8297 3.11543C4.82964 3.11038 4.82952 3.1063 4.82941 3.10326L4.80737 3.10508H4.80713C4.76749 3.10508 4.70161 3.09325 4.64041 3.07434C4.60975 3.06487 4.58005 3.05355 4.55523 3.04094C4.53357 3.02992 4.5151 3.01765 4.50308 3.00433C4.49055 3.01659 4.47152 3.02835 4.44927 3.0392C4.42368 3.05167 4.39315 3.06326 4.36174 3.07316C4.29908 3.09292 4.23202 3.10625 4.19288 3.10625H4.19251L4.17057 3.10352Z" fill="#C09300"/>
<path d="M4.806 3.12667H4.797C4.72725 3.12667 4.56525 3.0905 4.50225 3.0345C4.437 3.08583 4.27163 3.12783 4.203 3.12783C4.19997 3.12771 4.19696 3.12732 4.194 3.12667C4.19462 3.20039 4.20445 3.27373 4.22325 3.34483C4.26837 3.51615 4.36539 3.66788 4.5 3.77767C4.63469 3.66747 4.7317 3.51534 4.77675 3.34367C4.79546 3.27294 4.80529 3.2 4.806 3.12667Z" fill="white"/>
<path fill-rule="evenodd" clip-rule="evenodd" d="M4.50244 3.02776L4.50555 3.03051C4.53613 3.0577 4.59143 3.08051 4.64842 3.09652C4.70526 3.11249 4.76273 3.12142 4.797 3.12142H4.806V3.12667L4.81106 3.12672C4.81035 3.20051 4.80045 3.27389 4.78163 3.34506C4.73629 3.5178 4.63867 3.67089 4.50314 3.78179L4.50001 3.78435L4.49687 3.78179C4.36141 3.67132 4.26378 3.51862 4.21837 3.34622C4.19945 3.27468 4.18956 3.20089 4.18894 3.12671L4.18888 3.12017L4.19506 3.12153C4.1977 3.12212 4.20039 3.12247 4.2031 3.12258C4.23675 3.12256 4.29468 3.11221 4.35252 3.09536C4.4105 3.07848 4.46737 3.05535 4.49919 3.03032L4.50244 3.02776ZM4.80087 3.13192H4.797C4.76153 3.13192 4.70312 3.12276 4.64577 3.10665C4.59035 3.09108 4.53494 3.06874 4.50206 3.04117C4.46819 3.06646 4.4116 3.08906 4.35526 3.10547C4.297 3.12244 4.23799 3.13308 4.203 3.13308H4.20281C4.20158 3.13303 4.20036 3.13294 4.19914 3.13281C4.20023 3.204 4.20997 3.27477 4.22813 3.34345C4.27262 3.51234 4.36787 3.66209 4.5 3.77097C4.6322 3.66168 4.72745 3.51154 4.77187 3.34229C4.79001 3.2737 4.79975 3.20301 4.80087 3.13192Z" fill="#C09300"/>
<path d="M4.38075 3.09167C4.32032 3.11207 4.25749 3.12385 4.194 3.12667L4.19513 3.1745C4.19897 3.23173 4.20839 3.28841 4.22325 3.34367C4.25349 3.45841 4.30721 3.56505 4.38075 3.65633V3.09167ZM4.6125 3.66567C4.68958 3.57228 4.74568 3.4623 4.77675 3.34367C4.7916 3.2884 4.80102 3.23173 4.80488 3.1745L4.806 3.12783H4.797C4.75425 3.12783 4.68 3.11383 4.6125 3.0905V3.66567Z" fill="#C09300"/>
<path d="M4.63838 2.95167C4.64625 2.95283 4.62825 2.91083 4.62825 2.91083C4.6485 2.93183 4.72275 2.93767 4.72275 2.93767C4.67775 2.91667 4.63275 2.7615 4.63838 2.63667C4.64288 2.513 4.6215 2.464 4.60463 2.44533C4.58213 2.422 4.509 2.401 4.46175 2.39867C4.43363 2.3975 4.43925 2.41967 4.43925 2.41967C4.38863 2.40683 4.338 2.401 4.3155 2.41733C4.29525 2.43133 4.29075 2.50483 4.3065 2.492C4.34363 2.4605 4.37625 2.48967 4.39875 2.5235C4.419 2.55267 4.41788 2.63667 4.38863 2.73583C4.36273 2.8108 4.32468 2.88064 4.27613 2.94233C4.32113 2.94233 4.38413 2.9015 4.38413 2.9015L4.3695 2.96567C4.41675 2.94233 4.45388 2.90617 4.45388 2.90617L4.49888 2.95517C4.5135 2.93417 4.54388 2.90617 4.54388 2.90617C4.54388 2.90617 4.581 2.947 4.63838 2.95283V2.95167Z" fill="white"/>
<path fill-rule="evenodd" clip-rule="evenodd" d="M4.44317 2.39529C4.44797 2.39261 4.4542 2.39135 4.46202 2.39167C4.48631 2.39287 4.51701 2.39884 4.54442 2.40742C4.55815 2.41173 4.57121 2.41673 4.58234 2.4222C4.59338 2.42762 4.60297 2.43372 4.6094 2.44038L4.60948 2.44046L4.60955 2.44055C4.62836 2.46135 4.64964 2.51283 4.64512 2.63693C4.64235 2.69846 4.65206 2.76775 4.66805 2.82413C4.67605 2.85231 4.68554 2.87706 4.69569 2.89592C4.706 2.91511 4.71636 2.92701 4.72552 2.93128L4.72224 2.94465L4.72275 2.93767C4.72224 2.94465 4.72224 2.94465 4.72224 2.94465L4.722 2.94463L4.72135 2.94457C4.72078 2.94452 4.71995 2.94445 4.71889 2.94434C4.71678 2.94414 4.71375 2.94382 4.71005 2.94338C4.70267 2.94249 4.6926 2.94109 4.68186 2.93901C4.67114 2.93693 4.65961 2.93416 4.64936 2.9305C4.64688 2.92962 4.64442 2.92866 4.64204 2.92763C4.64224 2.92821 4.64244 2.92879 4.64263 2.92936C4.64441 2.93459 4.6461 2.94024 4.64678 2.94468C4.64709 2.94671 4.64737 2.94949 4.64673 2.95202C4.64649 2.95297 4.64603 2.95425 4.64513 2.95545V2.96055L4.63772 2.9598C4.60766 2.95674 4.58301 2.94454 4.56597 2.93321C4.55743 2.92753 4.55074 2.92203 4.54616 2.91794C4.54528 2.91715 4.54448 2.91642 4.54376 2.91574C4.54367 2.91583 4.54358 2.91592 4.54349 2.91601C4.54045 2.91892 4.53625 2.92303 4.5316 2.92778C4.52222 2.93736 4.51131 2.94927 4.50435 2.95927L4.49959 2.9661L4.4535 2.91591C4.45295 2.9164 4.45236 2.91693 4.45173 2.91749C4.44743 2.92133 4.44121 2.92667 4.43349 2.93274C4.41808 2.94487 4.39659 2.96004 4.3724 2.97199L4.35969 2.97826L4.37396 2.91566C4.36754 2.91931 4.35922 2.92379 4.34982 2.92827C4.32832 2.93854 4.30019 2.94933 4.27613 2.94933H4.2619L4.2709 2.93791C4.31893 2.87687 4.35658 2.80779 4.38222 2.73363C4.39667 2.68457 4.40413 2.63944 4.40551 2.60314C4.4062 2.58497 4.40536 2.56915 4.40318 2.55624C4.40098 2.54323 4.3975 2.53368 4.39327 2.52759L4.39319 2.52748C4.38214 2.51086 4.3692 2.49637 4.35525 2.48959C4.3484 2.48626 4.34143 2.48485 4.33429 2.48582C4.32713 2.48678 4.31927 2.49021 4.31077 2.49742L4.31067 2.49751C4.30762 2.49999 4.30289 2.50196 4.29815 2.49911C4.29442 2.49686 4.29277 2.49266 4.29193 2.48966C4.2901 2.48309 4.28991 2.47362 4.29078 2.46407C4.29167 2.45433 4.29374 2.44364 4.29699 2.43433C4.30012 2.42536 4.30479 2.41636 4.31169 2.41156C4.32489 2.40201 4.34513 2.39954 4.36713 2.40057C4.38707 2.4015 4.40968 2.40539 4.43241 2.41079C4.43266 2.40929 4.43307 2.40771 4.4337 2.4061C4.43529 2.40202 4.43824 2.39804 4.44317 2.39529ZM4.38055 2.89556L4.39447 2.88654L4.37942 2.95258C4.39729 2.94254 4.41319 2.93115 4.42532 2.92159C4.4328 2.91571 4.43881 2.91055 4.44294 2.90687C4.44501 2.90503 4.4466 2.90357 4.44767 2.90257C4.44821 2.90207 4.44861 2.90168 4.44888 2.90143L4.44917 2.90115L4.44925 2.90107M4.38055 2.89556L4.3804 2.89566L4.37989 2.89598C4.37944 2.89627 4.37876 2.89669 4.37788 2.89724C4.37612 2.89833 4.37353 2.89989 4.37029 2.90177C4.36379 2.90553 4.35467 2.91055 4.34418 2.91556C4.32781 2.92338 4.30871 2.93088 4.29122 2.93392C4.33557 2.87482 4.3706 2.80876 4.39498 2.73819L4.39503 2.73804L4.39508 2.73788C4.40984 2.68783 4.41756 2.64144 4.419 2.60369C4.41971 2.58482 4.41886 2.56797 4.41647 2.55383C4.41411 2.53982 4.41015 2.52796 4.40427 2.51947C4.39282 2.50227 4.37822 2.48529 4.36097 2.47691C4.35221 2.47265 4.34265 2.47057 4.33254 2.47193C4.32324 2.47319 4.3139 2.47731 4.30462 2.48462C4.30372 2.48042 4.30348 2.47356 4.30422 2.46539C4.30502 2.4566 4.30689 2.4471 4.30968 2.43909C4.31259 2.43077 4.31605 2.42536 4.31924 2.42316L4.31937 2.42307C4.32867 2.41632 4.34497 2.41355 4.36652 2.41456C4.38771 2.41555 4.41255 2.4201 4.43765 2.42647L4.44866 2.42926L4.44579 2.41794C4.44579 2.41795 4.44579 2.41793 4.44579 2.41794C4.44578 2.41788 4.44575 2.41773 4.44572 2.41754C4.44566 2.41717 4.44558 2.4166 4.44555 2.41591C4.44549 2.41447 4.44564 2.41282 4.44621 2.41136C4.44672 2.41004 4.44764 2.4087 4.44957 2.40762C4.45162 2.40648 4.45523 2.40541 4.46146 2.40566C4.48441 2.4068 4.51394 2.4125 4.54052 2.42083C4.55379 2.42498 4.56618 2.42975 4.57656 2.43485C4.58699 2.43998 4.59495 2.44523 4.59978 2.4502C4.61471 2.4668 4.6361 2.51336 4.63163 2.63637C4.62878 2.69966 4.63875 2.77043 4.6551 2.82808C4.66328 2.85692 4.67312 2.8827 4.6839 2.90274C4.68908 2.91238 4.69464 2.92099 4.70052 2.92799" fill="#C09300"/>
<path fill-rule="evenodd" clip-rule="evenodd" d="M4.48933 2.64905L4.49663 2.6495C4.50392 2.64995 4.50392 2.64996 4.50392 2.64996L4.50389 2.65053L4.50379 2.65219C4.5037 2.65365 4.50356 2.65579 4.50338 2.65852C4.503 2.664 4.50244 2.67189 4.50166 2.68154C4.50011 2.70084 4.49771 2.72723 4.49432 2.75558C4.49093 2.78391 4.48654 2.81429 4.481 2.84154C4.47549 2.86861 4.46872 2.89326 4.46034 2.90971L4.44741 2.90262C4.45478 2.88816 4.46123 2.86527 4.46669 2.83841C4.47211 2.81174 4.47644 2.78182 4.47981 2.75371C4.48317 2.72562 4.48555 2.69944 4.48709 2.68028C4.48786 2.6707 4.48842 2.66288 4.48879 2.65746C4.48897 2.65475 4.48911 2.65264 4.48919 2.65121L4.48929 2.64959L4.48933 2.64905ZM4.44888 2.65433L4.45613 2.65533C4.46337 2.65634 4.46337 2.65634 4.46337 2.65635L4.46335 2.65649L4.4633 2.65692L4.46308 2.65856C4.46288 2.65999 4.46259 2.66209 4.4622 2.66478C4.46143 2.67016 4.46027 2.67789 4.45873 2.68733C4.45566 2.70621 4.45106 2.73195 4.44497 2.75941C4.43889 2.78684 4.43129 2.81612 4.42218 2.84201C4.41315 2.86769 4.40235 2.89088 4.38953 2.90545L4.37873 2.89522C4.38953 2.88295 4.39954 2.8621 4.40844 2.83681C4.41726 2.81174 4.42471 2.78312 4.43072 2.75601C4.43672 2.72892 4.44127 2.70348 4.44431 2.6848C4.44583 2.67547 4.44697 2.66783 4.44774 2.66254C4.44812 2.65989 4.44841 2.65783 4.4486 2.65643L4.44881 2.65485L4.44886 2.65445L4.44888 2.65433ZM4.52419 2.65767C4.52419 2.65767 4.52419 2.65767 4.5315 2.65767C4.53881 2.65767 4.53881 2.65767 4.53881 2.65767L4.53882 2.66005C4.53882 2.66161 4.53882 2.6639 4.53883 2.66683C4.53886 2.6727 4.5389 2.68112 4.53899 2.69134C4.53916 2.71179 4.53952 2.73941 4.54022 2.76816C4.54092 2.79692 4.54197 2.82674 4.54354 2.85158C4.54433 2.86401 4.54524 2.87512 4.5463 2.8842C4.54737 2.89343 4.54854 2.90007 4.54971 2.90384L4.53579 2.90849C4.53415 2.90322 4.53286 2.89532 4.53178 2.88601C4.53068 2.87655 4.52975 2.86514 4.52895 2.85258C4.52736 2.82744 4.5263 2.79739 4.5256 2.76855C4.52489 2.73969 4.52454 2.71197 4.52436 2.69148C4.52428 2.68123 4.52423 2.67278 4.52421 2.66689C4.5242 2.66395 4.52419 2.66164 4.52419 2.66007L4.52419 2.65767ZM4.5692 2.66857C4.5692 2.66856 4.5692 2.66856 4.5765 2.66817L4.5838 2.66777L4.58381 2.66789L4.58383 2.66826L4.58391 2.66973C4.58399 2.67104 4.5841 2.67296 4.58427 2.67545C4.58459 2.68041 4.58511 2.68758 4.58586 2.69639C4.58736 2.71402 4.58981 2.73818 4.59358 2.76432C4.59735 2.79047 4.60243 2.81847 4.60918 2.84383C4.61596 2.86933 4.62428 2.89154 4.63427 2.90652L4.62223 2.91514C4.61084 2.89805 4.602 2.87388 4.59508 2.84786C4.58812 2.82171 4.58293 2.79305 4.57911 2.76656C4.57529 2.74005 4.57281 2.71557 4.57129 2.69773C4.57053 2.6888 4.57001 2.68153 4.56967 2.67648C4.56951 2.67395 4.56939 2.67198 4.56931 2.67064L4.56923 2.6691L4.56921 2.66871L4.5692 2.66857Z" fill="#C09300"/>
<path d="M4.41 2.562C4.40899 2.54847 4.40515 2.53533 4.39875 2.5235C4.37625 2.4885 4.34363 2.4605 4.3065 2.492C4.3065 2.492 4.31888 2.45117 4.347 2.45C4.36725 2.44883 4.41563 2.46633 4.45837 2.541C4.45837 2.541 4.42688 2.534 4.419 2.541C4.4055 2.55267 4.41113 2.562 4.41113 2.562H4.41Z" fill="#C09300"/>
<path fill-rule="evenodd" clip-rule="evenodd" d="M4.45498 2.53854C4.41291 2.46705 4.3662 2.45065 4.34709 2.45175C4.33386 2.4523 4.32413 2.46219 4.31761 2.4724C4.31438 2.47747 4.312 2.48251 4.31042 2.48629C4.31033 2.48651 4.31025 2.48672 4.31016 2.48692C4.318 2.48125 4.32569 2.47807 4.33318 2.47698C4.34218 2.47567 4.35076 2.47739 4.35881 2.48122C4.37485 2.48886 4.38885 2.50494 4.40015 2.52253L4.40023 2.52264C4.40479 2.53107 4.40807 2.54016 4.40998 2.54957C4.41141 2.54652 4.41387 2.54316 4.41791 2.53966C4.42032 2.53753 4.42425 2.53663 4.42834 2.5363C4.43254 2.53596 4.43733 2.53619 4.4418 2.53663C4.44629 2.53708 4.45051 2.53774 4.45362 2.53829C4.4541 2.53838 4.45455 2.53846 4.45498 2.53854ZM4.41256 2.56107C4.41254 2.56103 4.41248 2.56093 4.41243 2.56082C4.41234 2.56061 4.4122 2.56028 4.41207 2.55984C4.41181 2.55896 4.41156 2.55765 4.41168 2.55601C4.41192 2.55278 4.41361 2.54794 4.42008 2.54234C4.42161 2.54099 4.42458 2.54012 4.42861 2.53979C4.43253 2.53947 4.4371 2.53968 4.44148 2.54012C4.44586 2.54055 4.45 2.5412 4.45305 2.54174C4.45457 2.54201 4.45582 2.54225 4.45668 2.54243C4.45712 2.54252 4.45745 2.54259 4.45768 2.54264L4.45794 2.54269L4.45802 2.54271L4.4618 2.54355L4.45983 2.54011C4.41689 2.46512 4.36802 2.44704 4.34692 2.44825C4.33203 2.44888 4.3215 2.45998 4.3148 2.47047C4.31142 2.47576 4.30895 2.481 4.30732 2.48491C4.30651 2.48687 4.3059 2.4885 4.3055 2.48964C4.3053 2.49022 4.30515 2.49067 4.30505 2.49098L4.30493 2.49134L4.3049 2.49144C4.3049 2.49144 4.30489 2.49148 4.3065 2.492L4.3049 2.49144L4.3032 2.49706L4.30757 2.49335C4.31666 2.48564 4.32538 2.48165 4.33365 2.48044C4.34191 2.47924 4.34985 2.4808 4.35741 2.4844C4.37257 2.49163 4.38612 2.50703 4.39731 2.52441C4.40358 2.53601 4.40733 2.54888 4.40832 2.56213L4.40844 2.56375H4.41417L4.41256 2.56107C4.41256 2.56108 4.41256 2.56108 4.41256 2.56107Z" fill="#C09300"/>
<path d="M4.302 2.44183C4.30538 2.43017 4.30988 2.42083 4.31663 2.41733C4.33913 2.401 4.38863 2.40567 4.43925 2.41967C4.43925 2.41967 4.43475 2.3975 4.46175 2.39867C4.509 2.401 4.581 2.422 4.6035 2.44533C4.6107 2.45354 4.61642 2.46302 4.62038 2.47333C4.60913 2.457 4.57763 2.45817 4.56975 2.45933C4.5585 2.4605 4.55063 2.45933 4.53488 2.464C4.527 2.46633 4.51575 2.46867 4.509 2.47333C4.5045 2.478 4.5 2.492 4.49325 2.492C4.482 2.492 4.482 2.48967 4.47862 2.48617C4.47525 2.48033 4.473 2.47333 4.4685 2.4745C4.45725 2.47567 4.437 2.46633 4.41225 2.44533C4.38638 2.42433 4.37625 2.41967 4.34475 2.422C4.311 2.42433 4.302 2.44417 4.302 2.44417V2.44183Z" fill="#C09300"/>
<path fill-rule="evenodd" clip-rule="evenodd" d="M4.4409 2.41931L4.44087 2.41913C4.44085 2.41899 4.44082 2.41878 4.44078 2.41851C4.44072 2.41796 4.44066 2.41717 4.44066 2.41622C4.44066 2.41431 4.44092 2.41183 4.44192 2.40942C4.44292 2.40704 4.44464 2.4047 4.44765 2.40299C4.45069 2.40127 4.45514 2.40013 4.46168 2.40042C4.48513 2.40157 4.5148 2.40737 4.54141 2.4158C4.55472 2.42001 4.56722 2.42487 4.57778 2.4301C4.58834 2.43535 4.59685 2.44092 4.60228 2.44654C4.60738 2.45235 4.61171 2.45881 4.61519 2.46576C4.60912 2.46145 4.60135 2.45918 4.59405 2.45804C4.58363 2.45641 4.57365 2.45699 4.56955 2.4576M4.47997 2.48509C4.47932 2.48395 4.47871 2.48278 4.4781 2.48159C4.47798 2.48136 4.47786 2.48112 4.47774 2.48089C4.47698 2.47944 4.47621 2.47797 4.47538 2.47672C4.47455 2.47547 4.47359 2.4743 4.4724 2.47353C4.47119 2.47274 4.46978 2.4724 4.46822 2.47277C4.46307 2.47327 4.45557 2.47139 4.44617 2.46666C4.43676 2.46192 4.42562 2.45442 4.41332 2.44398C4.40038 2.43348 4.39116 2.42687 4.38116 2.42326C4.37114 2.41965 4.36046 2.41908 4.34463 2.42025C4.32743 2.42144 4.31642 2.42711 4.30968 2.43258C4.30803 2.43391 4.30665 2.43523 4.30549 2.43647C4.30669 2.43308 4.30802 2.43003 4.3095 2.42741C4.3118 2.42334 4.31441 2.42044 4.31738 2.4189L4.31749 2.41884L4.31759 2.41877C4.32837 2.41094 4.34589 2.408 4.36732 2.40887C4.38868 2.40974 4.41358 2.41438 4.43882 2.42136L4.44147 2.42209L4.4409 2.41931M4.30369 2.44209C4.30426 2.44013 4.30486 2.43826 4.30549 2.43647C4.30428 2.43776 4.30332 2.43896 4.30258 2.43998C4.30213 2.44061 4.30175 2.44118 4.30145 2.44166L4.30038 2.44133C4.30209 2.43543 4.30411 2.43003 4.30659 2.42564C4.30905 2.42129 4.31203 2.4178 4.31576 2.41583C4.31572 2.41585 4.31569 2.41588 4.31566 2.4159L4.31663 2.41733L4.31587 2.41577C4.31583 2.41579 4.3158 2.41581 4.31576 2.41583C4.32749 2.40737 4.34592 2.4045 4.36746 2.40538C4.38846 2.40623 4.41273 2.41067 4.43731 2.41732C4.43734 2.41796 4.43738 2.4185 4.43743 2.41893C4.43747 2.41926 4.43751 2.41952 4.43754 2.41971L4.43758 2.41993L4.4376 2.42002C4.4376 2.42002 4.4376 2.42003 4.43925 2.41967L4.43968 2.41798C4.43889 2.41776 4.4381 2.41754 4.43731 2.41732C4.43729 2.41698 4.43728 2.41661 4.43728 2.41622C4.43728 2.41401 4.43758 2.41102 4.43883 2.40803C4.44008 2.40502 4.44229 2.40204 4.44603 2.39992C4.44975 2.39781 4.45486 2.39662 4.46182 2.39692C4.48561 2.39809 4.51558 2.40396 4.5424 2.41245C4.55582 2.4167 4.56849 2.42161 4.57923 2.42695C4.58995 2.43227 4.59887 2.43806 4.60469 2.4441L4.60475 2.44415C4.61209 2.45251 4.61791 2.46218 4.62194 2.47269L4.619 2.47435C4.6138 2.46679 4.60371 2.46309 4.59355 2.4615C4.58346 2.45993 4.57378 2.4605 4.56999 2.46107C4.56665 2.46141 4.56359 2.46157 4.56064 2.46171C4.55338 2.46206 4.54641 2.4624 4.53534 2.46568C4.53364 2.46619 4.53186 2.46667 4.53002 2.46717C4.52744 2.46787 4.52474 2.46861 4.52201 2.46947C4.51747 2.47089 4.51323 2.47255 4.51008 2.47469C4.50915 2.4757 4.50815 2.47724 4.50703 2.47913C4.50663 2.47982 4.5062 2.48056 4.50577 2.48132C4.505 2.48265 4.5042 2.48406 4.50339 2.48536C4.5021 2.48744 4.50067 2.48948 4.49907 2.49102C4.49747 2.49256 4.49553 2.49375 4.49325 2.49375C4.48758 2.49375 4.48441 2.49318 4.48218 2.49194C4.48105 2.49131 4.48024 2.49054 4.47953 2.48976C4.47919 2.48939 4.47892 2.48908 4.47866 2.48877C4.47829 2.48834 4.47794 2.48793 4.47743 2.4874L4.47728 2.48725L4.47718 2.48707C4.47644 2.4858 4.47576 2.48447 4.47512 2.48323C4.475 2.483 4.47488 2.48277 4.47477 2.48255C4.47401 2.48109 4.47331 2.47978 4.47259 2.4787C4.47187 2.47761 4.47122 2.47689 4.47061 2.47649C4.47007 2.47614 4.46955 2.47603 4.46891 2.4762L4.46879 2.47623L4.46867 2.47624C4.46258 2.47687 4.45436 2.47466 4.4447 2.4698C4.43499 2.46492 4.42364 2.45726 4.4112 2.4467C4.39827 2.43621 4.38946 2.42996 4.38006 2.42657C4.37068 2.42319 4.36055 2.42258 4.34487 2.42375C4.32832 2.42489 4.31795 2.43031 4.31176 2.43534C4.30865 2.43786 4.30658 2.44029 4.30528 2.44208C4.30464 2.44297 4.30419 2.44371 4.30391 2.4442C4.30376 2.44445 4.30366 2.44464 4.3036 2.44476L4.30354 2.44489C4.30354 2.44489 4.30354 2.44489 4.30354 2.44489L4.30031 2.44417V2.44183H4.30135C4.30138 2.44178 4.30142 2.44172 4.30145 2.44166L4.302 2.44183M4.46822 2.47277C4.46818 2.47278 4.46813 2.47279 4.46809 2.4728L4.4685 2.4745L4.46833 2.47276C4.4683 2.47276 4.46826 2.47277 4.46822 2.47277ZM4.47997 2.48509C4.48 2.48515 4.48004 2.48521 4.48007 2.48527L4.47862 2.48617L4.47982 2.48493C4.47987 2.48498 4.47992 2.48503 4.47997 2.48509Z" fill="#C09300"/>
<path d="M4.4865 2.47217C4.49396 2.47217 4.5 2.4659 4.5 2.45817C4.5 2.45043 4.49396 2.44417 4.4865 2.44417C4.47904 2.44417 4.473 2.45043 4.473 2.45817C4.473 2.4659 4.47904 2.47217 4.4865 2.47217Z" fill="white"/>
</svg>
