<svg width="18" height="15" viewBox="0 0 18 15" fill="none" xmlns="http://www.w3.org/2000/svg">
<g filter="url(#filter0_d_1509_6369)">
<path d="M4 3H14V10H4V3Z" fill="#012169"/>
<path d="M5.17188 3L8.98438 5.63958L12.7812 3H14V3.90417L10.25 6.51458L14 9.11042V10H12.75L9 7.38958L5.26562 10H4V9.125L7.73438 6.52917L4 3.93333V3H5.17188Z" fill="white"/>
<path d="M10.625 7.09792L14 9.41667V10L9.76562 7.09792H10.625ZM7.75 7.38958L7.84375 7.9L4.84375 10H4L7.75 7.38958ZM14 3V3.04375L10.1094 5.78542L10.1406 5.14375L13.2188 3H14ZM4 3L7.73438 5.56667H6.79688L4 3.6125V3Z" fill="#C8102E"/>
<path d="M7.76562 3V10H10.2656V3H7.76562ZM4 5.33333V7.66667H14V5.33333H4Z" fill="white"/>
<path d="M4 5.81458V7.21458H14V5.81458H4ZM8.26562 3V10H9.76562V3H8.26562Z" fill="#C8102E"/>
</g>
<defs>
<filter id="filter0_d_1509_6369" x="0" y="0" width="18" height="15" filterUnits="userSpaceOnUse" color-interpolation-filters="sRGB">
<feFlood flood-opacity="0" result="BackgroundImageFix"/>
<feColorMatrix in="SourceAlpha" type="matrix" values="0 0 0 0 0 0 0 0 0 0 0 0 0 0 0 0 0 0 127 0" result="hardAlpha"/>
<feOffset dy="1"/>
<feGaussianBlur stdDeviation="2"/>
<feComposite in2="hardAlpha" operator="out"/>
<feColorMatrix type="matrix" values="0 0 0 0 1 0 0 0 0 1 0 0 0 0 1 0 0 0 0.25 0"/>
<feBlend mode="normal" in2="BackgroundImageFix" result="effect1_dropShadow_1509_6369"/>
<feBlend mode="normal" in="SourceGraphic" in2="effect1_dropShadow_1509_6369" result="shape"/>
</filter>
</defs>
</svg>
