<svg width="47" height="47" viewBox="0 0 47 47" fill="none" xmlns="http://www.w3.org/2000/svg">
<path d="M0.4375 23.52C0.4375 10.6518 10.8693 0.220001 23.7375 0.220001H47V46.82H23.7375C10.8693 46.82 0.4375 36.3882 0.4375 23.52Z" fill="#0077FF"/>
<path d="M26.9687 20.6175C27.2529 20.3332 27.2529 19.8722 26.9687 19.5878C26.6846 19.3035 26.224 19.3035 25.9399 19.5878L22.0596 23.4712C21.9176 23.6133 21.8466 23.7997 21.8466 23.986C21.8466 24.0847 21.8662 24.1789 21.9018 24.2647C21.9373 24.3505 21.9899 24.431 22.0596 24.5008L25.9399 28.3842C26.224 28.6685 26.6846 28.6685 26.9687 28.3842C27.2529 28.0998 27.2529 27.6389 26.9687 27.3545L24.3305 24.7141H33.7297C34.1315 24.7141 34.4572 24.3881 34.4572 23.986C34.4572 23.5839 34.1315 23.2579 33.7297 23.2579H24.3305L26.9687 20.6175Z" fill="#FAFBFC"/>
</svg>
