<svg width="16" height="18" viewBox="0 0 16 18" fill="none" xmlns="http://www.w3.org/2000/svg">
<path d="M10.0078 1.01544C9.05484 0.0304168 7.47628 0.0304169 6.5233 1.01543L1.86856 5.82663C1.60123 6.10294 1.42159 6.45226 1.35227 6.83055C0.786965 9.91586 0.745233 13.0744 1.22884 16.1736L1.40006 17.2708C1.45414 17.6174 1.75239 17.8729 2.10288 17.8729H5.35542C5.62329 17.8729 5.84045 17.6555 5.84045 17.3875V10.5917H10.6907V17.3875C10.6907 17.6555 10.9078 17.8729 11.1758 17.8729H14.4283C14.7787 17.8729 15.077 17.6174 15.1311 17.2708L15.3023 16.1736C15.7858 13.0744 15.7441 9.91586 15.1789 6.83055C15.1095 6.45226 14.9299 6.10294 14.6625 5.82663L10.0078 1.01544Z" fill="#405D80"/>
</svg>
