<svg width="39" height="37" viewBox="0 0 39 37" fill="none" xmlns="http://www.w3.org/2000/svg">
<path d="M0.0625 18.5C0.0625 8.28273 8.34523 0 18.5625 0H19.5625C29.7798 0 38.0625 8.28273 38.0625 18.5C38.0625 28.7173 29.7798 37 19.5625 37H18.5625C8.34523 37 0.0625 28.7173 0.0625 18.5Z" fill="#BFD4EF"/>
<path d="M18.75 8C19.1642 8 19.5 8.33579 19.5 8.75V9.75C19.5 10.1642 19.1642 10.5 18.75 10.5C18.3358 10.5 18 10.1642 18 9.75V8.75C18 8.33579 18.3358 8 18.75 8Z" fill="#7D96B3"/>
<path d="M18.75 13C15.5744 13 13 15.5744 13 18.75C13 21.9256 15.5744 24.5 18.75 24.5C21.9256 24.5 24.5 21.9256 24.5 18.75C24.5 15.5744 21.9256 13 18.75 13Z" fill="#7D96B3"/>
<path d="M12.2093 11.1486C11.9164 10.8557 11.4415 10.8557 11.1486 11.1486C10.8557 11.4415 10.8557 11.9164 11.1486 12.2093L11.8557 12.9164C12.1486 13.2093 12.6235 13.2093 12.9164 12.9164C13.2093 12.6235 13.2093 12.1486 12.9164 11.8557L12.2093 11.1486Z" fill="#7D96B3"/>
<path d="M29.5 18.75C29.5 19.1642 29.1642 19.5 28.75 19.5H27.75C27.3358 19.5 27 19.1642 27 18.75C27 18.3358 27.3358 18 27.75 18H28.75C29.1642 18 29.5 18.3358 29.5 18.75Z" fill="#7D96B3"/>
<path d="M26.3514 12.2093C26.6443 11.9164 26.6443 11.4415 26.3514 11.1486C26.0585 10.8557 25.5836 10.8557 25.2907 11.1486L24.5836 11.8557C24.2907 12.1486 24.2907 12.6235 24.5836 12.9164C24.8765 13.2093 25.3514 13.2093 25.6443 12.9164L26.3514 12.2093Z" fill="#7D96B3"/>
<path d="M18.75 27C19.1642 27 19.5 27.3358 19.5 27.75V28.75C19.5 29.1642 19.1642 29.5 18.75 29.5C18.3358 29.5 18 29.1642 18 28.75V27.75C18 27.3358 18.3358 27 18.75 27Z" fill="#7D96B3"/>
<path d="M25.6443 24.5836C25.3514 24.2907 24.8766 24.2907 24.5837 24.5836C24.2908 24.8765 24.2908 25.3514 24.5837 25.6443L25.2908 26.3514C25.5837 26.6443 26.0585 26.6443 26.3514 26.3514C26.6443 26.0585 26.6443 25.5836 26.3514 25.2907L25.6443 24.5836Z" fill="#7D96B3"/>
<path d="M10.5 18.75C10.5 19.1642 10.1642 19.5 9.75 19.5H8.75C8.33579 19.5 8 19.1642 8 18.75C8 18.3358 8.33579 18 8.75 18H9.75C10.1642 18 10.5 18.3358 10.5 18.75Z" fill="#7D96B3"/>
<path d="M12.9163 25.6443C13.2092 25.3514 13.2092 24.8765 12.9163 24.5836C12.6234 24.2907 12.1486 24.2907 11.8557 24.5836L11.1486 25.2907C10.8557 25.5836 10.8557 26.0585 11.1486 26.3514C11.4414 26.6443 11.9163 26.6443 12.2092 26.3514L12.9163 25.6443Z" fill="#7D96B3"/>
</svg>
