<svg width="19" height="21" viewBox="0 0 19 21" fill="none" xmlns="http://www.w3.org/2000/svg">
<path d="M9.94197 1.10703C9.94197 0.704902 9.61623 0.378906 9.21443 0.378906C8.81263 0.378906 8.48689 0.704902 8.48689 1.10703V2.10618C3.78539 2.47366 0.0746283 6.37217 7.9815e-05 11.1542C-0.00494506 11.4768 0.227848 11.7502 0.540729 11.8024C3.17212 12.2413 5.82846 12.4791 8.48689 12.5158V18.0966C8.48689 18.4987 8.16115 18.8247 7.75935 18.8247C7.35756 18.8247 7.03181 18.4987 7.03181 18.0966V17.6112C7.03181 17.2091 6.70608 16.8831 6.30427 16.8831C5.90247 16.8831 5.57674 17.2091 5.57674 17.6112V18.0966C5.57674 19.303 6.55393 20.281 7.75935 20.281C8.96474 20.281 9.94197 19.303 9.94197 18.0966V12.5158C12.6004 12.4791 15.2568 12.2413 17.8882 11.8024C18.201 11.7502 18.4338 11.4768 18.4288 11.1542C18.3543 6.37216 14.6435 2.47365 9.94197 2.10618V1.10703Z" fill="#405D80"/>
</svg>
