<svg width="19" height="17" viewBox="0 0 19 17" fill="none" xmlns="http://www.w3.org/2000/svg">
<path fill-rule="evenodd" clip-rule="evenodd" d="M4.65793 2.22193V3.60109L3.01473 3.73383C1.85291 3.82769 0.905202 4.70316 0.718865 5.85468C0.678375 6.10495 0.641542 6.35565 0.608386 6.60672C0.591934 6.73136 0.658314 6.85193 0.771811 6.90572L0.846553 6.94115C6.11268 9.43658 12.4186 9.43658 17.6848 6.94115L17.7595 6.90572C17.873 6.85193 17.9394 6.73136 17.9229 6.60673C17.8898 6.35566 17.853 6.10495 17.8125 5.85468C17.6262 4.70316 16.6784 3.82769 15.5166 3.73383L13.8734 3.60109V2.22193C13.8734 1.38095 13.2587 0.666521 12.4277 0.541769L11.2443 0.364116C9.93258 0.167202 8.59876 0.167202 7.28708 0.364116L6.10369 0.541769C5.27269 0.666521 4.65793 1.38095 4.65793 2.22193ZM11.0285 1.80426C9.85983 1.62882 8.67152 1.62882 7.5029 1.80426L6.31954 1.9819C6.20082 1.99973 6.113 2.10179 6.113 2.22193V3.49859C8.21307 3.37818 10.3183 3.37818 12.4183 3.49859V2.22193C12.4183 2.10179 12.3306 1.99973 12.2118 1.9819L11.0285 1.80426Z" fill="#405D80"/>
<path d="M18.1109 8.63885C18.1036 8.50284 17.9614 8.41779 17.837 8.47293C12.4328 10.8677 6.09849 10.8677 0.69441 8.47293C0.569952 8.41779 0.427665 8.50284 0.420429 8.63885C0.321697 10.4945 0.421185 12.3581 0.718865 14.1978C0.905202 15.3493 1.85291 16.2248 3.01473 16.3187L4.83059 16.4654C7.78246 16.7039 10.7488 16.7039 13.7008 16.4654L15.5166 16.3187C16.6784 16.2248 17.6262 15.3493 17.8125 14.1978C18.1101 12.3581 18.2097 10.4945 18.1109 8.63885Z" fill="#405D80"/>
</svg>
