<svg width="19" height="19" viewBox="0 0 19 19" fill="none" xmlns="http://www.w3.org/2000/svg">
<path d="M9.50004 0.645874C4.61002 0.645874 0.645874 4.61002 0.645874 9.50004C0.645874 14.39 4.61002 18.3542 9.50004 18.3542C14.1017 18.3542 17.883 14.8441 18.3134 10.3549C18.3335 10.1461 18.2261 9.94556 18.0412 9.84629C17.8562 9.74712 17.6297 9.76858 17.4668 9.90087C16.5713 10.6275 15.431 11.0625 14.1875 11.0625C11.3111 11.0625 8.97921 8.73067 8.97921 5.85421C8.97921 4.14577 9.80129 2.62945 11.0736 1.67886C11.2418 1.55318 11.3181 1.33875 11.267 1.13505C11.216 0.931353 11.0476 0.778228 10.84 0.746687C10.4027 0.68027 9.95525 0.645874 9.50004 0.645874Z" fill="white"/>
</svg>
