<svg width="17" height="18" viewBox="0 0 17 18" fill="none" xmlns="http://www.w3.org/2000/svg">
<path d="M8.40365 0.513916C3.84981 0.513916 0.158203 4.2085 0.158203 8.766C0.158203 13.3235 3.84981 17.0181 8.40365 17.0181C12.6889 17.0181 16.2102 13.7467 16.6111 9.56276C16.6298 9.36811 16.5298 9.18122 16.3576 9.08871C16.1853 8.99628 15.9744 9.01628 15.8227 9.13958C14.9887 9.81683 13.9268 10.2222 12.7689 10.2222C10.0902 10.2222 7.91862 8.04894 7.91862 5.36808C7.91862 3.77582 8.68419 2.36261 9.86901 1.47666C10.0257 1.35952 10.0967 1.15968 10.0491 0.969829C10.0016 0.779983 9.84485 0.63727 9.65152 0.607873C9.24429 0.545973 8.82756 0.513916 8.40365 0.513916Z" fill="#0F2A4D"/>
</svg>
