<svg width="50" height="45" viewBox="0 0 50 45" fill="none" xmlns="http://www.w3.org/2000/svg">
<path d="M0 8C0 3.58172 3.58172 0 8 0H42C46.4183 0 50 3.58172 50 8V37C50 41.4183 46.4183 45 42 45H8C3.58172 45 0 41.4183 0 37V8Z" fill="url(#paint0_linear_1106_5849)"/>
<path d="M15 15.5C15 14.6716 15.6716 14 16.5 14H34.5C35.3284 14 36 14.6716 36 15.5C36 16.3284 35.3284 17 34.5 17H16.5C15.6716 17 15 16.3284 15 15.5Z" fill="white"/>
<path d="M15 22.5C15 21.6716 15.6716 21 16.5 21H34.5C35.3284 21 36 21.6716 36 22.5C36 23.3284 35.3284 24 34.5 24H16.5C15.6716 24 15 23.3284 15 22.5Z" fill="white"/>
<path d="M15 29.5C15 28.6716 15.6716 28 16.5 28H34.5C35.3284 28 36 28.6716 36 29.5C36 30.3284 35.3284 31 34.5 31H16.5C15.6716 31 15 30.3284 15 29.5Z" fill="white"/>
<defs>
<linearGradient id="paint0_linear_1106_5849" x1="-17.5" y1="22.5" x2="58.2078" y2="26.4906" gradientUnits="userSpaceOnUse">
<stop offset="0.215836" stop-color="#0B67A7"/>
<stop offset="0.886094" stop-color="#DD7598"/>
</linearGradient>
</defs>
</svg>
