<svg width="19" height="14" viewBox="0 0 19 14" fill="none" xmlns="http://www.w3.org/2000/svg">
<path d="M9.42192 4.66962C8.21653 4.66962 7.2393 5.64764 7.2393 6.854C7.2393 8.06036 8.21653 9.03837 9.42192 9.03837C10.6273 9.03837 11.6045 8.06036 11.6045 6.854C11.6045 5.64764 10.6273 4.66962 9.42192 4.66962Z" fill="#F77599"/>
<path fill-rule="evenodd" clip-rule="evenodd" d="M9.42192 0.543583C6.88254 0.543583 4.59883 1.56431 2.95324 2.82829C2.12937 3.46112 1.45336 4.16395 0.979058 4.84795C0.513792 5.51891 0.206421 6.22441 0.206421 6.854C0.206421 7.48358 0.513792 8.18909 0.979058 8.86003C1.45336 9.54408 2.12937 10.2469 2.95324 10.8797C4.59883 12.1437 6.88254 13.1644 9.42192 13.1644C11.9613 13.1644 14.245 12.1437 15.8906 10.8797C16.7145 10.2469 17.3905 9.54408 17.8648 8.86003C18.33 8.18909 18.6374 7.48358 18.6374 6.854C18.6374 6.22441 18.33 5.51891 17.8648 4.84795C17.3905 4.16395 16.7145 3.46112 15.8906 2.82829C14.245 1.56431 11.9613 0.543583 9.42192 0.543583ZM5.78422 6.854C5.78422 4.84334 7.41287 3.21337 9.42192 3.21337C11.431 3.21337 13.0596 4.84334 13.0596 6.854C13.0596 8.86469 11.431 10.4946 9.42192 10.4946C7.41287 10.4946 5.78422 8.86469 5.78422 6.854Z" fill="#F77599"/>
</svg>
