<svg width="16" height="15" viewBox="0 0 16 15" fill="none" xmlns="http://www.w3.org/2000/svg">
<path d="M11.5656 7.5C11.5637 6.8697 11.4961 6.24131 11.3641 5.625H13.0516C12.9647 5.36792 12.8597 5.1173 12.7375 4.875H11.1672C10.872 3.88878 10.4141 2.95879 9.8125 2.12344C9.42812 1.96181 9.02734 1.84236 8.61719 1.76719C9.44141 2.65277 10.0635 3.70673 10.4406 4.85625H7.91406V1.6875H7.21094V4.86094H4.68438C5.06222 3.70933 5.68602 2.65369 6.5125 1.76719C6.10411 1.84111 5.70492 1.95898 5.32188 2.11875C4.71787 2.9506 4.25686 3.87738 3.95782 4.86094H2.37813C2.25371 5.10766 2.14718 5.363 2.05938 5.625H3.76094C3.62889 6.24131 3.56134 6.8697 3.55938 7.5C3.56067 8.18943 3.63929 8.87653 3.79375 9.54844H2.13438C2.23135 9.81118 2.34728 10.0665 2.48125 10.3125H3.99532C4.28229 11.2105 4.70773 12.0582 5.25625 12.825C5.64905 12.9935 6.05939 13.1177 6.47969 13.1953C5.71465 12.3608 5.1263 11.3802 4.75 10.3125H7.21563V13.2844H7.91875V10.3125H10.375C9.99743 11.3807 9.40745 12.3613 8.64063 13.1953C9.06289 13.115 9.47484 12.9876 9.86875 12.8156C10.4164 12.0517 10.8418 11.2073 11.1297 10.3125H12.6297C12.763 10.0711 12.879 9.82045 12.9766 9.5625H11.3125C11.4743 8.88673 11.5592 8.19484 11.5656 7.5ZM7.21094 9.54844H4.52032C4.1903 8.25836 4.17583 6.90778 4.47813 5.61094H7.21094V9.54844ZM10.6047 9.54844H7.91406V5.625H10.6469C10.7815 6.24081 10.8476 6.86965 10.8438 7.5C10.8476 8.18999 10.7673 8.87787 10.6047 9.54844Z" fill="#0D0D0D" fill-opacity="0.5"/>
<path d="M7.5625 0C6.07914 0 4.62909 0.439867 3.39573 1.26398C2.16236 2.08809 1.20106 3.25943 0.633407 4.62987C0.0657496 6.00032 -0.0827754 7.50832 0.206614 8.96317C0.496003 10.418 1.21031 11.7544 2.2592 12.8033C3.3081 13.8522 4.64447 14.5665 6.09932 14.8559C7.55418 15.1453 9.06218 14.9967 10.4326 14.4291C11.8031 13.8614 12.9744 12.9001 13.7985 11.6668C14.6226 10.4334 15.0625 8.98336 15.0625 7.5C15.0625 5.51087 14.2723 3.60322 12.8658 2.1967C11.4593 0.790176 9.55163 0 7.5625 0ZM7.5625 14.0625C6.26456 14.0625 4.99577 13.6776 3.91657 12.9565C2.83738 12.2354 1.99624 11.2105 1.49954 10.0114C1.00284 8.81222 0.872884 7.49272 1.1261 6.21972C1.37932 4.94672 2.00433 3.77739 2.92211 2.85961C3.8399 1.94183 5.00922 1.31681 6.28222 1.0636C7.55522 0.810381 8.87472 0.94034 10.0739 1.43704C11.273 1.93374 12.2979 2.77487 13.019 3.85407C13.7401 4.93327 14.125 6.20206 14.125 7.5C14.125 9.24048 13.4336 10.9097 12.2029 12.1404C10.9722 13.3711 9.30299 14.0625 7.5625 14.0625Z" fill="#0D0D0D" fill-opacity="0.5"/>
</svg>
