<svg width="15" height="15" viewBox="0 0 15 15" fill="none" xmlns="http://www.w3.org/2000/svg">
<path d="M11.5031 7.5C11.5012 6.8697 11.4336 6.24131 11.3016 5.625H12.9891C12.9022 5.36792 12.7972 5.1173 12.675 4.875H11.1047C10.8095 3.88878 10.3516 2.95879 9.75 2.12344C9.36562 1.96181 8.96484 1.84236 8.55469 1.76719C9.37891 2.65277 10.001 3.70673 10.3781 4.85625H7.85156V1.6875H7.14844V4.86094H4.62188C4.99972 3.70933 5.62352 2.65369 6.45 1.76719C6.04161 1.84111 5.64242 1.95898 5.25938 2.11875C4.65537 2.9506 4.19436 3.87738 3.89532 4.86094H2.31563C2.19121 5.10766 2.08468 5.363 1.99688 5.625H3.69844C3.56639 6.24131 3.49884 6.8697 3.49688 7.5C3.49817 8.18943 3.57679 8.87653 3.73125 9.54844H2.07188C2.16885 9.81118 2.28478 10.0665 2.41875 10.3125H3.93282C4.21979 11.2105 4.64523 12.0582 5.19375 12.825C5.58655 12.9935 5.99689 13.1177 6.41719 13.1953C5.65215 12.3608 5.0638 11.3802 4.6875 10.3125H7.15313V13.2844H7.85625V10.3125H10.3125C9.93493 11.3807 9.34495 12.3613 8.57813 13.1953C9.00039 13.115 9.41234 12.9876 9.80625 12.8156C10.3539 12.0517 10.7793 11.2073 11.0672 10.3125H12.5672C12.7005 10.0711 12.8165 9.82045 12.9141 9.5625H11.25C11.4118 8.88673 11.4967 8.19484 11.5031 7.5ZM7.14844 9.54844H4.45782C4.1278 8.25836 4.11333 6.90778 4.41563 5.61094H7.14844V9.54844ZM10.5422 9.54844H7.85156V5.625H10.5844C10.719 6.24081 10.7851 6.86965 10.7813 7.5C10.7851 8.18999 10.7048 8.87787 10.5422 9.54844Z" fill="white" fill-opacity="0.5"/>
<path d="M7.5 0C6.01664 0 4.56659 0.439867 3.33323 1.26398C2.09986 2.08809 1.13856 3.25943 0.570907 4.62987C0.00324964 6.00032 -0.145275 7.50832 0.144114 8.96317C0.433503 10.418 1.14781 11.7544 2.1967 12.8033C3.2456 13.8522 4.58197 14.5665 6.03682 14.8559C7.49168 15.1453 8.99968 14.9967 10.3701 14.4291C11.7406 13.8614 12.9119 12.9001 13.736 11.6668C14.5601 10.4334 15 8.98336 15 7.5C15 5.51087 14.2098 3.60322 12.8033 2.1967C11.3968 0.790176 9.48913 0 7.5 0ZM7.5 14.0625C6.20206 14.0625 4.93327 13.6776 3.85407 12.9565C2.77488 12.2354 1.93374 11.2105 1.43704 10.0114C0.940344 8.81222 0.810384 7.49272 1.0636 6.21972C1.31682 4.94672 1.94183 3.77739 2.85961 2.85961C3.7774 1.94183 4.94672 1.31681 6.21972 1.0636C7.49272 0.810381 8.81222 0.94034 10.0114 1.43704C11.2105 1.93374 12.2354 2.77487 12.9565 3.85407C13.6776 4.93327 14.0625 6.20206 14.0625 7.5C14.0625 9.24048 13.3711 10.9097 12.1404 12.1404C10.9097 13.3711 9.24049 14.0625 7.5 14.0625Z" fill="white" fill-opacity="0.5"/>
</svg>
